G75*
G70*
%OFA0B0*%
%FSLAX24Y24*%
%IPPOS*%
%LPD*%
%AMOC8*
5,1,8,0,0,1.08239X$1,22.5*
%
%ADD10R,0.0120X0.0490*%
%ADD11R,0.2953X0.0591*%
%ADD12R,0.2559X0.0394*%
%ADD13R,0.0433X0.0394*%
%ADD14R,0.0315X0.0315*%
%ADD15R,0.0394X0.0433*%
%ADD16R,0.0394X0.0709*%
%ADD17R,0.0394X0.0394*%
%ADD18R,0.0295X0.0157*%
D10*
X008062Y002295D03*
X008318Y002295D03*
X008574Y002295D03*
X008830Y002295D03*
X009086Y002295D03*
X009342Y002295D03*
X009598Y002295D03*
X009853Y002295D03*
X010109Y002295D03*
X010365Y002295D03*
X010621Y002295D03*
X010877Y002295D03*
X011133Y002295D03*
X011389Y002295D03*
X011388Y005005D03*
X011132Y005005D03*
X010876Y005005D03*
X010620Y005005D03*
X010364Y005005D03*
X010108Y005005D03*
X009853Y005004D03*
X009597Y005005D03*
X009341Y005005D03*
X009085Y005005D03*
X008829Y005005D03*
X008573Y005005D03*
X008317Y005005D03*
X008061Y005005D03*
D11*
X002021Y005053D03*
X002021Y002297D03*
D12*
X002218Y003281D03*
X002218Y004069D03*
D13*
X005015Y004400D03*
X005685Y004400D03*
X006390Y003900D03*
X007060Y003900D03*
X005685Y002900D03*
X005015Y002900D03*
D14*
X013350Y002730D03*
X013350Y003320D03*
D15*
X013350Y003815D03*
X012350Y003985D03*
X013350Y004485D03*
X012350Y003315D03*
D16*
X004049Y001775D03*
X005151Y001775D03*
D17*
X006331Y003150D03*
X007119Y003150D03*
D18*
X004714Y003650D03*
X003986Y003394D03*
X003986Y003906D03*
X003986Y003906D03*
X003986Y003906D03*
M02*
