G75*
G70*
%OFA0B0*%
%FSLAX24Y24*%
%IPPOS*%
%LPD*%
%AMOC8*
5,1,8,0,0,1.08239X$1,22.5*
%
%ADD10R,0.0120X0.0490*%
%ADD11R,0.2953X0.0591*%
%ADD12R,0.2559X0.0394*%
%ADD13R,0.0433X0.0394*%
%ADD14R,0.0315X0.0315*%
%ADD15R,0.0394X0.0433*%
%ADD16R,0.0394X0.0709*%
%ADD17R,0.0394X0.0394*%
%ADD18R,0.0295X0.0157*%
%ADD19C,0.0740*%
%ADD20C,0.0591*%
%ADD21C,0.0560*%
%ADD22C,0.0400*%
%ADD23C,0.0240*%
%ADD24C,0.0120*%
%ADD25C,0.0160*%
%ADD26C,0.0320*%
%ADD27C,0.0436*%
%ADD28C,0.0100*%
D10*
X008062Y002295D03*
X008318Y002295D03*
X008574Y002295D03*
X008830Y002295D03*
X009086Y002295D03*
X009342Y002295D03*
X009598Y002295D03*
X009853Y002295D03*
X010109Y002295D03*
X010365Y002295D03*
X010621Y002295D03*
X010877Y002295D03*
X011133Y002295D03*
X011389Y002295D03*
X011388Y005005D03*
X011132Y005005D03*
X010876Y005005D03*
X010620Y005005D03*
X010364Y005005D03*
X010108Y005005D03*
X009853Y005004D03*
X009597Y005005D03*
X009341Y005005D03*
X009085Y005005D03*
X008829Y005005D03*
X008573Y005005D03*
X008317Y005005D03*
X008061Y005005D03*
D11*
X002021Y005053D03*
X002021Y002297D03*
D12*
X002218Y003281D03*
X002218Y004069D03*
D13*
X005015Y004400D03*
X005685Y004400D03*
X006390Y003900D03*
X007060Y003900D03*
X005685Y002900D03*
X005015Y002900D03*
D14*
X013350Y002730D03*
X013350Y003320D03*
D15*
X013350Y003815D03*
X012350Y003985D03*
X013350Y004485D03*
X012350Y003315D03*
D16*
X005151Y001775D03*
X004049Y001775D03*
D17*
X006331Y003150D03*
X007119Y003150D03*
D18*
X004714Y003650D03*
X003986Y003394D03*
X003986Y003906D03*
D19*
X004225Y006650D03*
X005225Y006650D03*
X006225Y006650D03*
X007225Y006650D03*
X008225Y006650D03*
X009225Y006650D03*
X010225Y006650D03*
X011225Y006650D03*
X012225Y006650D03*
X013225Y006650D03*
X014225Y006650D03*
X015225Y006650D03*
X015225Y005650D03*
X015225Y004650D03*
X015225Y003650D03*
X015225Y002650D03*
X015225Y001650D03*
X015225Y000650D03*
X014225Y000650D03*
X013225Y000650D03*
X012225Y000650D03*
X011225Y000650D03*
X010225Y000650D03*
X009225Y000650D03*
X008225Y000650D03*
X007225Y000650D03*
X006225Y000650D03*
X005225Y000650D03*
X004225Y000650D03*
D20*
X005260Y005490D03*
D21*
X003975Y005053D02*
X003975Y005025D01*
X003975Y005053D02*
X002021Y005053D01*
X002021Y002297D02*
X004049Y002297D01*
X004049Y001775D01*
X005151Y001775D02*
X005725Y001775D01*
X012350Y002275D02*
X012350Y002650D01*
X012350Y003315D01*
X012350Y003985D02*
X012350Y004525D01*
X012350Y005025D01*
D22*
X013350Y004525D02*
X013350Y004485D01*
X008100Y003150D02*
X007350Y003150D01*
X007119Y003150D01*
X007060Y003150D01*
X007350Y003150D02*
X007350Y003900D01*
X007060Y003900D01*
X006390Y003900D02*
X006225Y003900D01*
X006225Y003650D01*
X005225Y003650D01*
X004714Y003650D01*
X006225Y003650D02*
X006225Y003150D01*
X006300Y003150D01*
X006331Y003150D01*
X006350Y003150D01*
D23*
X006331Y003900D02*
X006390Y003900D01*
X012350Y004525D02*
X012390Y004485D01*
X013350Y003815D02*
X013350Y003320D01*
X012430Y002730D02*
X012350Y002650D01*
D24*
X011225Y002900D02*
X011133Y002808D01*
X011133Y002295D01*
X008850Y003150D02*
X008850Y003400D01*
X008850Y003150D02*
X008574Y002874D01*
X008574Y002295D01*
X008318Y002295D02*
X008318Y002932D01*
X008100Y003150D01*
X007725Y002650D02*
X008062Y002313D01*
X008600Y003900D02*
X008573Y003927D01*
X008573Y005005D01*
X008573Y005357D01*
X008500Y005430D01*
X006445Y005430D01*
X005225Y006650D01*
X006225Y006650D02*
X007205Y005670D01*
X008620Y005670D01*
X008829Y005461D01*
X008829Y005005D01*
X009085Y005005D02*
X009085Y005685D01*
X008860Y005910D01*
X007965Y005910D01*
X007225Y006650D01*
X008225Y006650D02*
X008725Y006150D01*
X008980Y006150D01*
X009220Y006030D01*
X009341Y005909D01*
X009341Y005005D01*
X009597Y005005D02*
X009597Y006278D01*
X009225Y006650D01*
X009853Y006278D02*
X010225Y006650D01*
X009853Y006278D02*
X009853Y005004D01*
X010108Y005005D02*
X010108Y006017D01*
X010100Y006025D02*
X010350Y006025D01*
X010975Y006650D01*
X011225Y006650D01*
X011600Y006025D02*
X012225Y006650D01*
X012350Y005775D02*
X013225Y006650D01*
X014225Y006650D02*
X013100Y005525D01*
X010975Y005525D01*
X010876Y005426D01*
X010876Y005005D01*
X010620Y005005D02*
X010620Y005545D01*
X010850Y005775D01*
X012350Y005775D01*
X011600Y006025D02*
X010725Y006025D01*
X010364Y005664D01*
X010364Y005005D01*
X011132Y005005D02*
X011132Y004493D01*
X011225Y004400D01*
X008317Y004492D02*
X008100Y004275D01*
X008317Y004492D02*
X008317Y005005D01*
X008061Y004986D02*
X007725Y004650D01*
X014600Y005025D02*
X014600Y003150D01*
X014600Y005025D02*
X015225Y005650D01*
D25*
X012350Y005025D02*
X012205Y005005D01*
X011388Y005005D01*
X007725Y004650D02*
X005935Y004650D01*
X005685Y004400D01*
X005015Y004400D02*
X003986Y004400D01*
X003986Y003906D01*
X003986Y004069D01*
X002218Y004069D01*
X002218Y003281D02*
X003986Y003281D01*
X003986Y003394D01*
X003986Y002900D01*
X003975Y002900D01*
X003986Y002900D02*
X005015Y002900D01*
X005685Y002900D02*
X005935Y002650D01*
X007725Y002650D01*
X011389Y002295D02*
X012330Y002295D01*
X012350Y002275D01*
D26*
X013350Y002275D01*
X013400Y002225D01*
X014650Y002225D01*
X015225Y001650D01*
X013350Y002275D02*
X013350Y002730D01*
X014100Y002650D02*
X014100Y005025D01*
X013350Y005025D01*
X013350Y004525D01*
X013350Y005025D02*
X012350Y005025D01*
X014100Y002650D02*
X015225Y002650D01*
X007119Y003900D02*
X007060Y003900D01*
D27*
X008100Y004275D03*
X008600Y003900D03*
X008850Y003400D03*
X008100Y003150D03*
X005725Y001775D03*
X005225Y003650D03*
X003975Y005025D03*
X011225Y004400D03*
X012350Y005025D03*
X014600Y003150D03*
X012350Y002275D03*
X011225Y002900D03*
D28*
X003600Y001867D02*
X003600Y001425D01*
X003662Y001425D01*
X003702Y001385D01*
X003702Y001514D01*
X003684Y001531D01*
X003619Y001689D01*
X003619Y001867D01*
X003600Y001867D01*
X003600Y001825D02*
X003619Y001825D01*
X003619Y001726D02*
X003600Y001726D01*
X003600Y001628D02*
X003644Y001628D01*
X003687Y001529D02*
X003600Y001529D01*
X003600Y001431D02*
X003702Y001431D01*
X003750Y001311D02*
X003790Y001271D01*
X004308Y001271D01*
X004396Y001359D01*
X004396Y001514D01*
X004413Y001531D01*
X004479Y001689D01*
X004479Y002383D01*
X004413Y002541D01*
X004292Y002662D01*
X004272Y002670D01*
X004649Y002670D01*
X004649Y002641D01*
X004737Y002553D01*
X005294Y002553D01*
X005350Y002609D01*
X005406Y002553D01*
X005706Y002553D01*
X005839Y002420D01*
X007658Y002420D01*
X007852Y002226D01*
X007852Y001988D01*
X007940Y001900D01*
X008184Y001900D01*
X008190Y001906D01*
X008196Y001900D01*
X008440Y001900D01*
X008446Y001906D01*
X008450Y001903D01*
X008417Y001870D01*
X006177Y001870D01*
X006155Y001848D01*
X006155Y001861D01*
X006090Y002019D01*
X005969Y002140D01*
X005811Y002205D01*
X005484Y002205D01*
X005410Y002279D01*
X004892Y002279D01*
X004804Y002191D01*
X004804Y002036D01*
X004787Y002019D01*
X004721Y001861D01*
X004721Y001689D01*
X004787Y001531D01*
X004804Y001514D01*
X004804Y001359D01*
X004892Y001271D01*
X005410Y001271D01*
X005484Y001345D01*
X005652Y001345D01*
X005434Y001126D01*
X005328Y001170D01*
X005122Y001170D01*
X004930Y001091D01*
X004784Y000945D01*
X004725Y000802D01*
X004666Y000945D01*
X004520Y001091D01*
X004328Y001170D01*
X004122Y001170D01*
X003930Y001091D01*
X003784Y000945D01*
X003750Y000862D01*
X003750Y001311D01*
X003750Y001234D02*
X005541Y001234D01*
X005442Y001135D02*
X005413Y001135D01*
X005471Y001332D02*
X005639Y001332D01*
X005987Y001114D02*
X006343Y001470D01*
X006737Y001470D01*
X006405Y001138D01*
X006328Y001170D01*
X006122Y001170D01*
X005987Y001114D01*
X006008Y001135D02*
X006037Y001135D01*
X006106Y001234D02*
X006501Y001234D01*
X006599Y001332D02*
X006205Y001332D01*
X006303Y001431D02*
X006698Y001431D01*
X006980Y001430D02*
X006260Y000710D01*
X006225Y000650D01*
X006703Y000446D02*
X006747Y000446D01*
X006725Y000498D02*
X006784Y000355D01*
X006840Y000300D01*
X006610Y000300D01*
X006666Y000355D01*
X006725Y000498D01*
X006657Y000347D02*
X006793Y000347D01*
X007225Y000650D02*
X007300Y000710D01*
X007780Y001190D01*
X008660Y001190D01*
X009300Y001830D01*
X009300Y002230D01*
X009342Y002295D01*
X009086Y002295D02*
X009060Y002230D01*
X009060Y001910D01*
X008580Y001430D01*
X006980Y001430D01*
X007063Y001230D02*
X007537Y001230D01*
X007434Y001126D01*
X007328Y001170D01*
X007122Y001170D01*
X006930Y001091D01*
X006784Y000945D01*
X006725Y000802D01*
X006699Y000866D01*
X007063Y001230D01*
X007037Y001135D02*
X006968Y001135D01*
X006876Y001037D02*
X006869Y001037D01*
X006781Y000938D02*
X006771Y000938D01*
X006741Y000840D02*
X006709Y000840D01*
X007413Y001135D02*
X007442Y001135D01*
X007710Y000837D02*
X007761Y000888D01*
X007725Y000802D01*
X007710Y000837D01*
X007712Y000840D02*
X007741Y000840D01*
X008225Y000650D02*
X008260Y000710D01*
X008500Y000710D01*
X009620Y001830D01*
X009620Y002230D01*
X009598Y002295D01*
X009853Y002295D02*
X009860Y002230D01*
X009860Y001270D01*
X009300Y000710D01*
X009225Y000650D01*
X009703Y000446D02*
X009747Y000446D01*
X009725Y000498D02*
X009784Y000355D01*
X009840Y000300D01*
X009610Y000300D01*
X009666Y000355D01*
X009725Y000498D01*
X009657Y000347D02*
X009793Y000347D01*
X010225Y000650D02*
X010180Y000710D01*
X010100Y000790D01*
X010100Y002230D01*
X010109Y002295D01*
X010340Y002230D02*
X010365Y002295D01*
X010340Y002230D02*
X010340Y001590D01*
X011220Y000710D01*
X011225Y000650D01*
X011703Y000446D02*
X011747Y000446D01*
X011725Y000498D02*
X011784Y000355D01*
X011840Y000300D01*
X011610Y000300D01*
X011666Y000355D01*
X011725Y000498D01*
X011657Y000347D02*
X011793Y000347D01*
X012225Y000650D02*
X012180Y000710D01*
X011700Y001190D01*
X011380Y001190D01*
X010660Y001910D01*
X010660Y002230D01*
X010621Y002295D01*
X010877Y002295D02*
X010900Y002230D01*
X010900Y001990D01*
X011460Y001430D01*
X012500Y001430D01*
X013220Y000710D01*
X013225Y000650D01*
X013703Y000446D02*
X013747Y000446D01*
X013725Y000498D02*
X013784Y000355D01*
X013840Y000300D01*
X013610Y000300D01*
X013666Y000355D01*
X013725Y000498D01*
X013657Y000347D02*
X013793Y000347D01*
X013725Y000802D02*
X013666Y000945D01*
X013520Y001091D01*
X013328Y001170D01*
X013122Y001170D01*
X013066Y001147D01*
X012583Y001630D01*
X011543Y001630D01*
X011272Y001900D01*
X011511Y001900D01*
X011599Y001988D01*
X011599Y002065D01*
X011971Y002065D01*
X011985Y002031D01*
X012106Y001910D01*
X012264Y001845D01*
X012436Y001845D01*
X012594Y001910D01*
X012648Y001965D01*
X013222Y001965D01*
X013224Y001962D01*
X013338Y001915D01*
X014522Y001915D01*
X014705Y001732D01*
X014705Y001547D01*
X014784Y001355D01*
X014930Y001209D01*
X015073Y001150D01*
X014930Y001091D01*
X014784Y000945D01*
X014725Y000802D01*
X014666Y000945D01*
X014520Y001091D01*
X014328Y001170D01*
X014122Y001170D01*
X013930Y001091D01*
X013784Y000945D01*
X013725Y000802D01*
X013709Y000840D02*
X013741Y000840D01*
X013781Y000938D02*
X013669Y000938D01*
X013574Y001037D02*
X013876Y001037D01*
X014037Y001135D02*
X013413Y001135D01*
X012979Y001234D02*
X014906Y001234D01*
X015037Y001135D02*
X014413Y001135D01*
X014574Y001037D02*
X014876Y001037D01*
X014781Y000938D02*
X014669Y000938D01*
X014709Y000840D02*
X014741Y000840D01*
X015377Y001150D02*
X015520Y001209D01*
X015575Y001265D01*
X015575Y001035D01*
X015520Y001091D01*
X015377Y001150D01*
X015413Y001135D02*
X015575Y001135D01*
X015574Y001037D02*
X015575Y001037D01*
X015575Y001234D02*
X015544Y001234D01*
X014808Y001332D02*
X012881Y001332D01*
X012782Y001431D02*
X014753Y001431D01*
X014712Y001529D02*
X012684Y001529D01*
X012585Y001628D02*
X014705Y001628D01*
X014705Y001726D02*
X011447Y001726D01*
X011348Y001825D02*
X014612Y001825D01*
X015373Y002151D02*
X015425Y002168D01*
X015498Y002205D01*
X015564Y002253D01*
X015575Y002265D01*
X015575Y002035D01*
X015520Y002091D01*
X015373Y002151D01*
X015449Y002120D02*
X015575Y002120D01*
X015575Y002219D02*
X015516Y002219D01*
X015175Y002600D02*
X014706Y002600D01*
X014717Y002533D01*
X014712Y002535D01*
X013660Y002535D01*
X013660Y002791D01*
X013657Y002797D01*
X013657Y002949D01*
X013582Y003025D01*
X013657Y003101D01*
X013657Y003497D01*
X013697Y003537D01*
X013697Y004094D01*
X013641Y004150D01*
X013667Y004176D01*
X013687Y004210D01*
X013697Y004248D01*
X013697Y004436D01*
X013398Y004436D01*
X013398Y004533D01*
X013302Y004533D01*
X013302Y004851D01*
X013133Y004851D01*
X013095Y004841D01*
X013061Y004821D01*
X013033Y004793D01*
X013013Y004759D01*
X013003Y004721D01*
X013003Y004533D01*
X013302Y004533D01*
X013302Y004436D01*
X013003Y004436D01*
X013003Y004248D01*
X013013Y004210D01*
X013033Y004176D01*
X013059Y004150D01*
X013003Y004094D01*
X013003Y003537D01*
X013043Y003497D01*
X013043Y003101D01*
X013118Y003025D01*
X013043Y002949D01*
X013043Y002797D01*
X013040Y002791D01*
X013040Y002585D01*
X012780Y002585D01*
X012780Y003401D01*
X012715Y003559D01*
X012697Y003577D01*
X012697Y003594D01*
X012641Y003650D01*
X012667Y003676D01*
X012687Y003710D01*
X012697Y003748D01*
X012697Y003936D01*
X012398Y003936D01*
X012398Y004033D01*
X012302Y004033D01*
X012302Y004351D01*
X012133Y004351D01*
X012095Y004341D01*
X012061Y004321D01*
X012033Y004293D01*
X012013Y004259D01*
X012003Y004221D01*
X012003Y004033D01*
X012302Y004033D01*
X012302Y003936D01*
X012003Y003936D01*
X012003Y003748D01*
X012013Y003710D01*
X012033Y003676D01*
X012059Y003650D01*
X012003Y003594D01*
X012003Y003577D01*
X011985Y003559D01*
X011920Y003401D01*
X011920Y002525D01*
X011599Y002525D01*
X011599Y002603D01*
X011523Y002678D01*
X011537Y002691D01*
X011593Y002827D01*
X011593Y002973D01*
X011537Y003109D01*
X011434Y003212D01*
X011298Y003268D01*
X011152Y003268D01*
X011016Y003212D01*
X010913Y003109D01*
X010857Y002973D01*
X010857Y002827D01*
X010913Y002691D01*
X010914Y002690D01*
X010755Y002690D01*
X010749Y002685D01*
X010743Y002690D01*
X010499Y002690D01*
X010493Y002685D01*
X010487Y002690D01*
X010243Y002690D01*
X010237Y002685D01*
X010231Y002690D01*
X009987Y002690D01*
X009981Y002685D01*
X009976Y002690D01*
X009731Y002690D01*
X009725Y002685D01*
X009720Y002690D01*
X009475Y002690D01*
X009470Y002685D01*
X009464Y002690D01*
X009219Y002690D01*
X009214Y002685D01*
X009208Y002690D01*
X008964Y002690D01*
X008958Y002685D01*
X008952Y002690D01*
X008784Y002690D01*
X008784Y002787D01*
X009060Y003063D01*
X009060Y003089D01*
X009162Y003191D01*
X009218Y003327D01*
X009218Y003473D01*
X009162Y003609D01*
X009059Y003712D01*
X008941Y003761D01*
X008968Y003827D01*
X008968Y003973D01*
X008912Y004109D01*
X008809Y004212D01*
X008783Y004223D01*
X008783Y004610D01*
X008951Y004610D01*
X008957Y004615D01*
X008963Y004610D01*
X009207Y004610D01*
X009213Y004615D01*
X009219Y004610D01*
X009463Y004610D01*
X009469Y004615D01*
X009474Y004610D01*
X009719Y004610D01*
X009725Y004616D01*
X009731Y004609D01*
X009975Y004609D01*
X009981Y004615D01*
X009986Y004610D01*
X010231Y004610D01*
X010236Y004615D01*
X010242Y004610D01*
X010486Y004610D01*
X010492Y004615D01*
X010498Y004610D01*
X010742Y004610D01*
X010748Y004615D01*
X010754Y004610D01*
X010914Y004610D01*
X010913Y004609D01*
X010857Y004473D01*
X010857Y004327D01*
X010913Y004191D01*
X011016Y004088D01*
X011152Y004032D01*
X011298Y004032D01*
X011434Y004088D01*
X011537Y004191D01*
X011593Y004327D01*
X011593Y004473D01*
X011537Y004609D01*
X011518Y004627D01*
X011540Y004640D01*
X011568Y004668D01*
X011588Y004702D01*
X011598Y004740D01*
X011598Y005005D01*
X011598Y005269D01*
X011588Y005308D01*
X011583Y005315D01*
X013187Y005315D01*
X014037Y006165D01*
X014122Y006130D01*
X014328Y006130D01*
X014520Y006209D01*
X014666Y006355D01*
X014725Y006498D01*
X014784Y006355D01*
X014930Y006209D01*
X015073Y006150D01*
X014930Y006091D01*
X014784Y005945D01*
X014705Y005753D01*
X014705Y005547D01*
X014740Y005462D01*
X014390Y005112D01*
X014390Y003461D01*
X014288Y003359D01*
X014232Y003223D01*
X014232Y003077D01*
X014288Y002941D01*
X014391Y002838D01*
X014527Y002782D01*
X014673Y002782D01*
X014729Y002805D01*
X014718Y002772D01*
X014706Y002700D01*
X015175Y002700D01*
X015175Y002600D01*
X015175Y002613D02*
X013660Y002613D01*
X013660Y002711D02*
X014708Y002711D01*
X014460Y002810D02*
X013657Y002810D01*
X013657Y002908D02*
X014321Y002908D01*
X014261Y003007D02*
X013600Y003007D01*
X013657Y003105D02*
X014232Y003105D01*
X014232Y003204D02*
X013657Y003204D01*
X013657Y003302D02*
X014265Y003302D01*
X014330Y003401D02*
X013657Y003401D01*
X013659Y003499D02*
X014390Y003499D01*
X014390Y003598D02*
X013697Y003598D01*
X013697Y003696D02*
X014390Y003696D01*
X014390Y003795D02*
X013697Y003795D01*
X013697Y003893D02*
X014390Y003893D01*
X014390Y003992D02*
X013697Y003992D01*
X013697Y004090D02*
X014390Y004090D01*
X014390Y004189D02*
X013674Y004189D01*
X013697Y004287D02*
X014390Y004287D01*
X014390Y004386D02*
X013697Y004386D01*
X013697Y004533D02*
X013398Y004533D01*
X013398Y004851D01*
X013567Y004851D01*
X013605Y004841D01*
X013639Y004821D01*
X013667Y004793D01*
X013687Y004759D01*
X013697Y004721D01*
X013697Y004533D01*
X013697Y004583D02*
X014390Y004583D01*
X014390Y004484D02*
X013398Y004484D01*
X013302Y004484D02*
X011589Y004484D01*
X011593Y004386D02*
X013003Y004386D01*
X013003Y004287D02*
X012671Y004287D01*
X012667Y004293D02*
X012639Y004321D01*
X012605Y004341D01*
X012567Y004351D01*
X012398Y004351D01*
X012398Y004033D01*
X012697Y004033D01*
X012697Y004221D01*
X012687Y004259D01*
X012667Y004293D01*
X012697Y004189D02*
X013026Y004189D01*
X013003Y004090D02*
X012697Y004090D01*
X012398Y004090D02*
X012302Y004090D01*
X012302Y004189D02*
X012398Y004189D01*
X012398Y004287D02*
X012302Y004287D01*
X012029Y004287D02*
X011577Y004287D01*
X011534Y004189D02*
X012003Y004189D01*
X012003Y004090D02*
X011436Y004090D01*
X011014Y004090D02*
X008920Y004090D01*
X008832Y004189D02*
X010916Y004189D01*
X010873Y004287D02*
X008783Y004287D01*
X008783Y004386D02*
X010857Y004386D01*
X010861Y004484D02*
X008783Y004484D01*
X008783Y004583D02*
X010902Y004583D01*
X011548Y004583D02*
X013003Y004583D01*
X013003Y004681D02*
X011576Y004681D01*
X011598Y004780D02*
X013025Y004780D01*
X013302Y004780D02*
X013398Y004780D01*
X013398Y004681D02*
X013302Y004681D01*
X013302Y004583D02*
X013398Y004583D01*
X013697Y004681D02*
X014390Y004681D01*
X014390Y004780D02*
X013675Y004780D01*
X014390Y004878D02*
X011598Y004878D01*
X011598Y004977D02*
X014390Y004977D01*
X014390Y005075D02*
X011598Y005075D01*
X011598Y005005D02*
X011388Y005005D01*
X011388Y005005D01*
X011598Y005005D01*
X011598Y005174D02*
X014452Y005174D01*
X014550Y005272D02*
X011597Y005272D01*
X012607Y005735D02*
X013037Y006165D01*
X013122Y006130D01*
X013328Y006130D01*
X013464Y006186D01*
X013013Y005735D01*
X012607Y005735D01*
X012636Y005765D02*
X013043Y005765D01*
X013141Y005863D02*
X012735Y005863D01*
X012833Y005962D02*
X013240Y005962D01*
X013338Y006060D02*
X012932Y006060D01*
X013030Y006159D02*
X013053Y006159D01*
X013397Y006159D02*
X013437Y006159D01*
X013689Y006411D02*
X013725Y006498D01*
X013740Y006462D01*
X013689Y006411D01*
X013707Y006454D02*
X013732Y006454D01*
X014030Y006159D02*
X014053Y006159D01*
X013932Y006060D02*
X014900Y006060D01*
X015053Y006159D02*
X014397Y006159D01*
X014567Y006257D02*
X014883Y006257D01*
X014784Y006356D02*
X014666Y006356D01*
X014707Y006454D02*
X014743Y006454D01*
X015377Y006150D02*
X015520Y006209D01*
X015575Y006265D01*
X015575Y006035D01*
X015520Y006091D01*
X015377Y006150D01*
X015397Y006159D02*
X015575Y006159D01*
X015567Y006257D02*
X015575Y006257D01*
X015575Y006060D02*
X015550Y006060D01*
X014801Y005962D02*
X013833Y005962D01*
X013735Y005863D02*
X014750Y005863D01*
X014710Y005765D02*
X013636Y005765D01*
X013538Y005666D02*
X014705Y005666D01*
X014705Y005568D02*
X013439Y005568D01*
X013341Y005469D02*
X014737Y005469D01*
X014649Y005371D02*
X013242Y005371D01*
X012464Y006186D02*
X012263Y005985D01*
X011857Y005985D01*
X012037Y006165D01*
X012122Y006130D01*
X012328Y006130D01*
X012464Y006186D01*
X012437Y006159D02*
X012397Y006159D01*
X012338Y006060D02*
X011932Y006060D01*
X012030Y006159D02*
X012053Y006159D01*
X011740Y006462D02*
X011689Y006411D01*
X011725Y006498D01*
X011740Y006462D01*
X011732Y006454D02*
X011707Y006454D01*
X011725Y006802D02*
X011666Y006945D01*
X011610Y007000D01*
X011840Y007000D01*
X011784Y006945D01*
X011725Y006802D01*
X011706Y006848D02*
X011744Y006848D01*
X011786Y006947D02*
X011664Y006947D01*
X010840Y007000D02*
X010784Y006945D01*
X010725Y006802D01*
X010666Y006945D01*
X010610Y007000D01*
X010840Y007000D01*
X010786Y006947D02*
X010664Y006947D01*
X010706Y006848D02*
X010744Y006848D01*
X009840Y007000D02*
X009784Y006945D01*
X009725Y006802D01*
X009666Y006945D01*
X009610Y007000D01*
X009840Y007000D01*
X009786Y006947D02*
X009664Y006947D01*
X009706Y006848D02*
X009744Y006848D01*
X009725Y006498D02*
X009710Y006462D01*
X009725Y006447D01*
X009740Y006462D01*
X009725Y006498D01*
X009718Y006454D02*
X009732Y006454D01*
X010100Y006050D02*
X010100Y006025D01*
X010108Y006017D02*
X010100Y006050D01*
X010857Y006235D02*
X010881Y006259D01*
X010905Y006235D01*
X010857Y006235D01*
X010879Y006257D02*
X010883Y006257D01*
X012689Y006411D02*
X012725Y006498D01*
X012740Y006462D01*
X012689Y006411D01*
X012707Y006454D02*
X012732Y006454D01*
X012725Y006802D02*
X012666Y006945D01*
X012610Y007000D01*
X012840Y007000D01*
X012784Y006945D01*
X012725Y006802D01*
X012706Y006848D02*
X012744Y006848D01*
X012786Y006947D02*
X012664Y006947D01*
X013610Y007000D02*
X013840Y007000D01*
X013784Y006945D01*
X013725Y006802D01*
X013666Y006945D01*
X013610Y007000D01*
X013664Y006947D02*
X013786Y006947D01*
X013744Y006848D02*
X013706Y006848D01*
X014610Y007000D02*
X014840Y007000D01*
X014784Y006945D01*
X014725Y006802D01*
X014666Y006945D01*
X014610Y007000D01*
X014664Y006947D02*
X014786Y006947D01*
X014744Y006848D02*
X014706Y006848D01*
X015575Y005265D02*
X015575Y005035D01*
X015520Y005091D01*
X015377Y005150D01*
X015520Y005209D01*
X015575Y005265D01*
X015575Y005174D02*
X015433Y005174D01*
X015535Y005075D02*
X015575Y005075D01*
X015073Y005150D02*
X015037Y005165D01*
X014986Y005114D01*
X015073Y005150D01*
X014810Y004330D02*
X014930Y004209D01*
X015073Y004150D01*
X014930Y004091D01*
X014810Y003970D01*
X014810Y004330D01*
X014810Y004287D02*
X014853Y004287D01*
X014810Y004189D02*
X014980Y004189D01*
X014930Y004090D02*
X014810Y004090D01*
X014810Y003992D02*
X014831Y003992D01*
X015377Y004150D02*
X015520Y004209D01*
X015575Y004265D01*
X015575Y004035D01*
X015520Y004091D01*
X015377Y004150D01*
X015470Y004189D02*
X015575Y004189D01*
X015575Y004090D02*
X015520Y004090D01*
X015575Y003265D02*
X015575Y003035D01*
X015564Y003047D01*
X015498Y003095D01*
X015425Y003132D01*
X015373Y003149D01*
X015520Y003209D01*
X015575Y003265D01*
X015575Y003204D02*
X015506Y003204D01*
X015477Y003105D02*
X015575Y003105D01*
X015077Y003149D02*
X015025Y003132D01*
X014968Y003103D01*
X014968Y003194D01*
X015077Y003149D01*
X014973Y003105D02*
X014968Y003105D01*
X013100Y003007D02*
X012780Y003007D01*
X012780Y003105D02*
X013043Y003105D01*
X013043Y003204D02*
X012780Y003204D01*
X012780Y003302D02*
X013043Y003302D01*
X013043Y003401D02*
X012780Y003401D01*
X012739Y003499D02*
X013041Y003499D01*
X013003Y003598D02*
X012693Y003598D01*
X012678Y003696D02*
X013003Y003696D01*
X013003Y003795D02*
X012697Y003795D01*
X012697Y003893D02*
X013003Y003893D01*
X013003Y003992D02*
X012398Y003992D01*
X012302Y003992D02*
X008961Y003992D01*
X008968Y003893D02*
X012003Y003893D01*
X012003Y003795D02*
X008955Y003795D01*
X009075Y003696D02*
X012022Y003696D01*
X012007Y003598D02*
X009167Y003598D01*
X009207Y003499D02*
X011961Y003499D01*
X011920Y003401D02*
X009218Y003401D01*
X009208Y003302D02*
X011920Y003302D01*
X011920Y003204D02*
X011442Y003204D01*
X011539Y003105D02*
X011920Y003105D01*
X011920Y003007D02*
X011579Y003007D01*
X011593Y002908D02*
X011920Y002908D01*
X011920Y002810D02*
X011586Y002810D01*
X011545Y002711D02*
X011920Y002711D01*
X011920Y002613D02*
X011589Y002613D01*
X010905Y002711D02*
X008784Y002711D01*
X008806Y002810D02*
X010864Y002810D01*
X010857Y002908D02*
X008905Y002908D01*
X009003Y003007D02*
X010871Y003007D01*
X010911Y003105D02*
X009076Y003105D01*
X009167Y003204D02*
X011008Y003204D01*
X012780Y002908D02*
X013043Y002908D01*
X013043Y002810D02*
X012780Y002810D01*
X012780Y002711D02*
X013040Y002711D01*
X013040Y002613D02*
X012780Y002613D01*
X011995Y002022D02*
X011599Y002022D01*
X011534Y001923D02*
X012094Y001923D01*
X012606Y001923D02*
X013319Y001923D01*
X012417Y001230D02*
X011943Y001230D01*
X012038Y001135D01*
X012122Y001170D01*
X012328Y001170D01*
X012520Y001091D01*
X012666Y000945D01*
X012725Y000802D01*
X012760Y000887D01*
X012417Y001230D01*
X012413Y001135D02*
X012512Y001135D01*
X012574Y001037D02*
X012611Y001037D01*
X012669Y000938D02*
X012709Y000938D01*
X012709Y000840D02*
X012741Y000840D01*
X012725Y000498D02*
X012784Y000355D01*
X012840Y000300D01*
X012610Y000300D01*
X012666Y000355D01*
X012725Y000498D01*
X012703Y000446D02*
X012747Y000446D01*
X012793Y000347D02*
X012657Y000347D01*
X011725Y000802D02*
X011749Y000859D01*
X011668Y000939D01*
X011725Y000802D01*
X011709Y000840D02*
X011741Y000840D01*
X011669Y000938D02*
X011669Y000938D01*
X011118Y001169D02*
X011066Y001147D01*
X010540Y001673D01*
X010540Y001747D01*
X011118Y001169D01*
X011054Y001234D02*
X010979Y001234D01*
X010955Y001332D02*
X010881Y001332D01*
X010857Y001431D02*
X010782Y001431D01*
X010758Y001529D02*
X010684Y001529D01*
X010660Y001628D02*
X010585Y001628D01*
X010561Y001726D02*
X010540Y001726D01*
X010300Y001347D02*
X010760Y000887D01*
X010725Y000802D01*
X010666Y000945D01*
X010520Y001091D01*
X010328Y001170D01*
X010300Y001170D01*
X010300Y001347D01*
X010300Y001332D02*
X010315Y001332D01*
X010300Y001234D02*
X010414Y001234D01*
X010413Y001135D02*
X010512Y001135D01*
X010574Y001037D02*
X010611Y001037D01*
X010669Y000938D02*
X010709Y000938D01*
X010709Y000840D02*
X010741Y000840D01*
X010725Y000498D02*
X010784Y000355D01*
X010840Y000300D01*
X010610Y000300D01*
X010666Y000355D01*
X010725Y000498D01*
X010703Y000446D02*
X010747Y000446D01*
X010793Y000347D02*
X010657Y000347D01*
X009725Y000802D02*
X009761Y000888D01*
X009710Y000837D01*
X009725Y000802D01*
X009712Y000840D02*
X009741Y000840D01*
X009442Y001135D02*
X009413Y001135D01*
X009434Y001126D02*
X009328Y001170D01*
X009243Y001170D01*
X009660Y001587D01*
X009660Y001353D01*
X009434Y001126D01*
X009541Y001234D02*
X009306Y001234D01*
X009405Y001332D02*
X009639Y001332D01*
X009660Y001431D02*
X009503Y001431D01*
X009602Y001529D02*
X009660Y001529D01*
X008820Y001990D02*
X008500Y001670D01*
X006260Y001670D01*
X005300Y000710D01*
X005225Y000650D01*
X005703Y000446D02*
X005747Y000446D01*
X005725Y000498D02*
X005784Y000355D01*
X005840Y000300D01*
X005610Y000300D01*
X005666Y000355D01*
X005725Y000498D01*
X005657Y000347D02*
X005793Y000347D01*
X005725Y000802D02*
X005761Y000888D01*
X005710Y000837D01*
X005725Y000802D01*
X005712Y000840D02*
X005741Y000840D01*
X005037Y001135D02*
X004413Y001135D01*
X004574Y001037D02*
X004876Y001037D01*
X004781Y000938D02*
X004669Y000938D01*
X004709Y000840D02*
X004741Y000840D01*
X004037Y001135D02*
X003750Y001135D01*
X003750Y001037D02*
X003876Y001037D01*
X003781Y000938D02*
X003750Y000938D01*
X004369Y001332D02*
X004831Y001332D01*
X004804Y001431D02*
X004396Y001431D01*
X004411Y001529D02*
X004789Y001529D01*
X004747Y001628D02*
X004453Y001628D01*
X004479Y001726D02*
X004721Y001726D01*
X004721Y001825D02*
X004479Y001825D01*
X004479Y001923D02*
X004747Y001923D01*
X004790Y002022D02*
X004479Y002022D01*
X004479Y002120D02*
X004804Y002120D01*
X004831Y002219D02*
X004479Y002219D01*
X004479Y002317D02*
X007761Y002317D01*
X007852Y002219D02*
X005471Y002219D01*
X005988Y002120D02*
X007852Y002120D01*
X007852Y002022D02*
X006087Y002022D01*
X006129Y001923D02*
X007917Y001923D01*
X008062Y002295D02*
X008100Y002350D01*
X008062Y002313D01*
X007663Y002416D02*
X004465Y002416D01*
X004424Y002514D02*
X005745Y002514D01*
X006659Y002880D02*
X006668Y002895D01*
X006678Y002933D01*
X006678Y003102D01*
X006380Y003102D01*
X006380Y003198D01*
X006678Y003198D01*
X006678Y003367D01*
X006668Y003405D01*
X006648Y003439D01*
X006620Y003467D01*
X006586Y003487D01*
X006548Y003497D01*
X006380Y003497D01*
X006380Y003198D01*
X006283Y003198D01*
X006283Y003102D01*
X006051Y003102D01*
X006051Y003159D01*
X006012Y003198D01*
X006283Y003198D01*
X006283Y003497D01*
X006115Y003497D01*
X006077Y003487D01*
X006042Y003467D01*
X006014Y003439D01*
X005995Y003405D01*
X005984Y003367D01*
X005984Y003226D01*
X005963Y003247D01*
X005406Y003247D01*
X005350Y003191D01*
X005294Y003247D01*
X004737Y003247D01*
X004649Y003159D01*
X004649Y003130D01*
X004216Y003130D01*
X004216Y003186D01*
X004283Y003253D01*
X004283Y003535D01*
X004196Y003623D01*
X004082Y003623D01*
X004081Y003624D01*
X003891Y003624D01*
X003889Y003623D01*
X003776Y003623D01*
X003688Y003535D01*
X003688Y003511D01*
X003648Y003511D01*
X003648Y003540D01*
X003600Y003588D01*
X003600Y003762D01*
X003648Y003810D01*
X003648Y003839D01*
X003688Y003839D01*
X003688Y003765D01*
X003776Y003677D01*
X003889Y003677D01*
X003891Y003676D01*
X004081Y003676D01*
X004082Y003677D01*
X004196Y003677D01*
X004283Y003765D01*
X004283Y004047D01*
X004216Y004114D01*
X004216Y004170D01*
X004649Y004170D01*
X004649Y004141D01*
X004737Y004053D01*
X005294Y004053D01*
X005350Y004109D01*
X005406Y004053D01*
X005963Y004053D01*
X006024Y004114D01*
X006024Y003948D01*
X006342Y003948D01*
X006342Y003852D01*
X006300Y003850D01*
X006342Y003852D02*
X006024Y003852D01*
X006024Y003683D01*
X006034Y003645D01*
X006054Y003611D01*
X006082Y003583D01*
X006116Y003563D01*
X006154Y003553D01*
X006342Y003553D01*
X006342Y003852D01*
X006439Y003852D01*
X006439Y003553D01*
X006627Y003553D01*
X006665Y003563D01*
X006699Y003583D01*
X006725Y003609D01*
X006781Y003553D01*
X006982Y003553D01*
X006990Y003550D01*
X007000Y003550D01*
X007000Y003500D01*
X006990Y003500D01*
X006982Y003497D01*
X006860Y003497D01*
X006772Y003409D01*
X006772Y003357D01*
X006763Y003348D01*
X006710Y003220D01*
X006710Y003080D01*
X006763Y002952D01*
X006772Y002943D01*
X006772Y002891D01*
X006783Y002880D01*
X006659Y002880D01*
X006671Y002908D02*
X006772Y002908D01*
X006740Y003007D02*
X006678Y003007D01*
X006710Y003105D02*
X006380Y003105D01*
X006300Y003150D02*
X006300Y003198D01*
X006283Y003204D02*
X006380Y003204D01*
X006283Y003105D02*
X006051Y003105D01*
X005984Y003302D02*
X004283Y003302D01*
X004283Y003401D02*
X005994Y003401D01*
X006283Y003401D02*
X006380Y003401D01*
X006400Y003450D02*
X006400Y003497D01*
X006439Y003598D02*
X006342Y003598D01*
X006342Y003696D02*
X006439Y003696D01*
X006439Y003795D02*
X006342Y003795D01*
X006342Y003893D02*
X004283Y003893D01*
X004283Y003992D02*
X006024Y003992D01*
X006024Y004090D02*
X006000Y004090D01*
X006051Y004184D02*
X006051Y004420D01*
X007820Y004420D01*
X007955Y004555D01*
X007955Y004583D01*
X007982Y004610D01*
X008183Y004610D01*
X008196Y004622D01*
X008199Y004620D01*
X008237Y004610D01*
X008317Y004610D01*
X008317Y005005D01*
X008317Y005005D01*
X008317Y004610D01*
X008363Y004610D01*
X008363Y004184D01*
X008288Y004109D01*
X008232Y003973D01*
X008232Y003827D01*
X008288Y003691D01*
X008391Y003588D01*
X008509Y003539D01*
X008482Y003473D01*
X008482Y003327D01*
X008538Y003191D01*
X008566Y003163D01*
X008475Y003072D01*
X008468Y003079D01*
X008468Y003223D01*
X008412Y003359D01*
X008309Y003462D01*
X008173Y003518D01*
X008027Y003518D01*
X007983Y003500D01*
X007700Y003500D01*
X007700Y003970D01*
X007647Y004098D01*
X007548Y004197D01*
X007420Y004250D01*
X006990Y004250D01*
X006982Y004247D01*
X006781Y004247D01*
X006725Y004191D01*
X006699Y004217D01*
X006665Y004237D01*
X006627Y004247D01*
X006439Y004247D01*
X006439Y003948D01*
X006342Y003948D01*
X006342Y004247D01*
X006154Y004247D01*
X006116Y004237D01*
X006082Y004217D01*
X006054Y004189D01*
X006051Y004184D01*
X006051Y004189D02*
X006054Y004189D01*
X006051Y004287D02*
X008363Y004287D01*
X008363Y004189D02*
X007556Y004189D01*
X007650Y004090D02*
X008280Y004090D01*
X008239Y003992D02*
X007691Y003992D01*
X007700Y003893D02*
X008232Y003893D01*
X008245Y003795D02*
X007700Y003795D01*
X007700Y003696D02*
X008286Y003696D01*
X008382Y003598D02*
X007700Y003598D01*
X008219Y003499D02*
X008493Y003499D01*
X008482Y003401D02*
X008370Y003401D01*
X008435Y003302D02*
X008492Y003302D01*
X008468Y003204D02*
X008533Y003204D01*
X008508Y003105D02*
X008468Y003105D01*
X008108Y002782D02*
X008027Y002782D01*
X007983Y002800D01*
X007900Y002800D01*
X007955Y002745D01*
X007955Y002717D01*
X007982Y002690D01*
X008108Y002690D01*
X008108Y002782D01*
X008108Y002711D02*
X007961Y002711D01*
X008830Y002295D02*
X008820Y002230D01*
X008820Y001990D01*
X006710Y003204D02*
X006678Y003204D01*
X006678Y003302D02*
X006744Y003302D01*
X006772Y003401D02*
X006669Y003401D01*
X006380Y003302D02*
X006283Y003302D01*
X006067Y003598D02*
X005012Y003598D01*
X005012Y003552D02*
X005012Y003650D01*
X005012Y003748D01*
X005002Y003787D01*
X004982Y003821D01*
X004954Y003849D01*
X004920Y003869D01*
X004882Y003879D01*
X004714Y003879D01*
X004547Y003879D01*
X004509Y003869D01*
X004474Y003849D01*
X004447Y003821D01*
X004427Y003787D01*
X004417Y003748D01*
X004417Y003650D01*
X004417Y003552D01*
X004427Y003513D01*
X004447Y003479D01*
X004474Y003451D01*
X004509Y003431D01*
X004547Y003421D01*
X004714Y003421D01*
X004714Y003650D01*
X004417Y003650D01*
X004714Y003650D01*
X004714Y003650D01*
X004714Y003650D01*
X004714Y003879D01*
X004700Y003850D01*
X004714Y003879D02*
X004714Y003650D01*
X004714Y003650D01*
X004714Y003421D01*
X004882Y003421D01*
X004920Y003431D01*
X004954Y003451D01*
X004982Y003479D01*
X005002Y003513D01*
X005012Y003552D01*
X004993Y003499D02*
X006988Y003499D01*
X006737Y003598D02*
X006713Y003598D01*
X006439Y003992D02*
X006342Y003992D01*
X006342Y004090D02*
X006439Y004090D01*
X006439Y004189D02*
X006342Y004189D01*
X006051Y004386D02*
X008363Y004386D01*
X008363Y004484D02*
X007884Y004484D01*
X007955Y004583D02*
X008363Y004583D01*
X008317Y004681D02*
X008317Y004681D01*
X008317Y004780D02*
X008317Y004780D01*
X008317Y004878D02*
X008317Y004878D01*
X008100Y004950D02*
X008061Y004986D01*
X008061Y005005D02*
X008100Y004950D01*
X008317Y004977D02*
X008317Y004977D01*
X007851Y005073D02*
X007851Y005220D01*
X006358Y005220D01*
X005413Y006165D01*
X005328Y006130D01*
X005122Y006130D01*
X004930Y006209D01*
X004784Y006355D01*
X004724Y006502D01*
X004707Y006450D01*
X004670Y006377D01*
X004622Y006311D01*
X004564Y006253D01*
X004498Y006205D01*
X004425Y006168D01*
X004347Y006143D01*
X004275Y006131D01*
X004275Y006600D01*
X004175Y006600D01*
X004175Y006131D01*
X004103Y006143D01*
X004025Y006168D01*
X003952Y006205D01*
X003886Y006253D01*
X003828Y006311D01*
X003780Y006377D01*
X003750Y006437D01*
X003750Y006013D01*
X003662Y005925D01*
X003600Y005925D01*
X003600Y005458D01*
X003618Y005440D01*
X003637Y005406D01*
X003648Y005368D01*
X003648Y005103D01*
X003600Y005103D01*
X003600Y005003D01*
X003648Y005003D01*
X003648Y004738D01*
X003637Y004700D01*
X003618Y004666D01*
X003600Y004648D01*
X003600Y004375D01*
X003648Y004328D01*
X003648Y004299D01*
X003756Y004299D01*
X003756Y004495D01*
X003891Y004630D01*
X004649Y004630D01*
X004649Y004659D01*
X004737Y004747D01*
X005294Y004747D01*
X005350Y004691D01*
X005406Y004747D01*
X005706Y004747D01*
X005839Y004880D01*
X007658Y004880D01*
X007851Y005073D01*
X007851Y005075D02*
X005422Y005075D01*
X005349Y005045D02*
X005512Y005113D01*
X005637Y005238D01*
X005705Y005401D01*
X005705Y005579D01*
X005637Y005742D01*
X005512Y005867D01*
X005349Y005935D01*
X005171Y005935D01*
X005008Y005867D01*
X004883Y005742D01*
X004815Y005579D01*
X004815Y005401D01*
X004883Y005238D01*
X005008Y005113D01*
X005171Y005045D01*
X005349Y005045D01*
X005098Y005075D02*
X003600Y005075D01*
X003648Y004977D02*
X007755Y004977D01*
X007851Y005174D02*
X005573Y005174D01*
X005652Y005272D02*
X006306Y005272D01*
X006208Y005371D02*
X005692Y005371D01*
X005705Y005469D02*
X006109Y005469D01*
X006011Y005568D02*
X005705Y005568D01*
X005669Y005666D02*
X005912Y005666D01*
X005814Y005765D02*
X005615Y005765D01*
X005517Y005863D02*
X005715Y005863D01*
X005616Y005962D02*
X003699Y005962D01*
X003600Y005863D02*
X005003Y005863D01*
X004905Y005765D02*
X003600Y005765D01*
X003600Y005666D02*
X004851Y005666D01*
X004815Y005568D02*
X003600Y005568D01*
X003600Y005469D02*
X004815Y005469D01*
X004828Y005371D02*
X003647Y005371D01*
X003648Y005272D02*
X004868Y005272D01*
X004947Y005174D02*
X003648Y005174D01*
X003648Y004878D02*
X005837Y004878D01*
X005739Y004780D02*
X003648Y004780D01*
X003627Y004681D02*
X004671Y004681D01*
X003843Y004583D02*
X003600Y004583D01*
X003600Y004484D02*
X003756Y004484D01*
X003756Y004386D02*
X003600Y004386D01*
X004240Y004090D02*
X004700Y004090D01*
X004920Y003869D02*
X004900Y003850D01*
X004997Y003795D02*
X006024Y003795D01*
X006024Y003696D02*
X005012Y003696D01*
X005012Y003650D02*
X004714Y003650D01*
X004714Y003650D01*
X005012Y003650D01*
X004714Y003696D02*
X004714Y003696D01*
X004714Y003750D02*
X004700Y003750D01*
X004714Y003795D02*
X004714Y003795D01*
X004714Y003598D02*
X004714Y003598D01*
X004714Y003550D02*
X004700Y003550D01*
X004714Y003499D02*
X004714Y003499D01*
X004700Y003450D02*
X004700Y003421D01*
X004600Y003421D02*
X004600Y003450D01*
X004435Y003499D02*
X004283Y003499D01*
X004221Y003598D02*
X004417Y003598D01*
X004417Y003696D02*
X004214Y003696D01*
X004283Y003795D02*
X004431Y003795D01*
X003757Y003696D02*
X003600Y003696D01*
X003600Y003598D02*
X003751Y003598D01*
X003688Y003795D02*
X003632Y003795D01*
X004234Y003204D02*
X004693Y003204D01*
X005337Y003204D02*
X005363Y003204D01*
X004677Y002613D02*
X004341Y002613D01*
X003823Y002727D02*
X003600Y002727D01*
X003600Y002975D01*
X003648Y003022D01*
X003648Y003051D01*
X003756Y003051D01*
X003756Y003006D01*
X003745Y002995D01*
X003745Y002805D01*
X003823Y002727D01*
X003745Y002810D02*
X003600Y002810D01*
X003600Y002908D02*
X003745Y002908D01*
X003756Y003007D02*
X003632Y003007D01*
X005331Y004090D02*
X005369Y004090D01*
X006532Y005640D02*
X005986Y006186D01*
X006122Y006130D01*
X006328Y006130D01*
X006413Y006165D01*
X006938Y005640D01*
X006532Y005640D01*
X006506Y005666D02*
X006912Y005666D01*
X006814Y005765D02*
X006407Y005765D01*
X006309Y005863D02*
X006715Y005863D01*
X006617Y005962D02*
X006210Y005962D01*
X006112Y006060D02*
X006518Y006060D01*
X006420Y006159D02*
X006397Y006159D01*
X006053Y006159D02*
X006013Y006159D01*
X005761Y006411D02*
X005710Y006462D01*
X005725Y006498D01*
X005761Y006411D01*
X005743Y006454D02*
X005718Y006454D01*
X005419Y006159D02*
X005397Y006159D01*
X005518Y006060D02*
X003750Y006060D01*
X003750Y006159D02*
X004055Y006159D01*
X004175Y006159D02*
X004275Y006159D01*
X004275Y006257D02*
X004175Y006257D01*
X004395Y006159D02*
X005053Y006159D01*
X004883Y006257D02*
X004567Y006257D01*
X004654Y006356D02*
X004784Y006356D01*
X004743Y006454D02*
X004708Y006454D01*
X004275Y006454D02*
X004175Y006454D01*
X004175Y006356D02*
X004275Y006356D01*
X004275Y006553D02*
X004175Y006553D01*
X003796Y006356D02*
X003750Y006356D01*
X003750Y006257D02*
X003883Y006257D01*
X004724Y006798D02*
X004707Y006850D01*
X004670Y006923D01*
X004622Y006989D01*
X004610Y007000D01*
X004840Y007000D01*
X004784Y006945D01*
X004724Y006798D01*
X004707Y006848D02*
X004744Y006848D01*
X004786Y006947D02*
X004652Y006947D01*
X003840Y007000D02*
X003828Y006989D01*
X003780Y006923D01*
X003750Y006863D01*
X003750Y007000D01*
X003840Y007000D01*
X003798Y006947D02*
X003750Y006947D01*
X005610Y007000D02*
X005840Y007000D01*
X005784Y006945D01*
X005725Y006802D01*
X005666Y006945D01*
X005610Y007000D01*
X005664Y006947D02*
X005786Y006947D01*
X005744Y006848D02*
X005706Y006848D01*
X006610Y007000D02*
X006840Y007000D01*
X006784Y006945D01*
X006725Y006802D01*
X006666Y006945D01*
X006610Y007000D01*
X006664Y006947D02*
X006786Y006947D01*
X006744Y006848D02*
X006706Y006848D01*
X006725Y006498D02*
X006710Y006462D01*
X006761Y006411D01*
X006725Y006498D01*
X006718Y006454D02*
X006743Y006454D01*
X006986Y006186D02*
X007122Y006130D01*
X007328Y006130D01*
X007413Y006165D01*
X007698Y005880D01*
X007292Y005880D01*
X006986Y006186D01*
X007013Y006159D02*
X007053Y006159D01*
X007112Y006060D02*
X007518Y006060D01*
X007419Y006159D02*
X007397Y006159D01*
X007210Y005962D02*
X007616Y005962D01*
X007986Y006186D02*
X008122Y006130D01*
X008328Y006130D01*
X008413Y006165D01*
X008458Y006120D01*
X008052Y006120D01*
X007986Y006186D01*
X008013Y006159D02*
X008053Y006159D01*
X008397Y006159D02*
X008420Y006159D01*
X008710Y006462D02*
X008761Y006411D01*
X008725Y006498D01*
X008710Y006462D01*
X008718Y006454D02*
X008743Y006454D01*
X008725Y006802D02*
X008666Y006945D01*
X008610Y007000D01*
X008840Y007000D01*
X008784Y006945D01*
X008725Y006802D01*
X008706Y006848D02*
X008744Y006848D01*
X008786Y006947D02*
X008664Y006947D01*
X007840Y007000D02*
X007784Y006945D01*
X007725Y006802D01*
X007666Y006945D01*
X007610Y007000D01*
X007840Y007000D01*
X007786Y006947D02*
X007664Y006947D01*
X007706Y006848D02*
X007744Y006848D01*
X007725Y006498D02*
X007710Y006462D01*
X007761Y006411D01*
X007725Y006498D01*
X007718Y006454D02*
X007743Y006454D01*
X007725Y000498D02*
X007784Y000355D01*
X007840Y000300D01*
X007610Y000300D01*
X007666Y000355D01*
X007725Y000498D01*
X007703Y000446D02*
X007747Y000446D01*
X007793Y000347D02*
X007657Y000347D01*
X008610Y000300D02*
X008840Y000300D01*
X008784Y000355D01*
X008725Y000498D01*
X008666Y000355D01*
X008610Y000300D01*
X008657Y000347D02*
X008793Y000347D01*
X008747Y000446D02*
X008703Y000446D01*
X004840Y000300D02*
X004610Y000300D01*
X004666Y000355D01*
X004725Y000498D01*
X004784Y000355D01*
X004840Y000300D01*
X004793Y000347D02*
X004657Y000347D01*
X004703Y000446D02*
X004747Y000446D01*
X003840Y000300D02*
X003750Y000300D01*
X003750Y000438D01*
X003784Y000355D01*
X003840Y000300D01*
X003793Y000347D02*
X003750Y000347D01*
X014610Y000300D02*
X014840Y000300D01*
X014784Y000355D01*
X014725Y000498D01*
X014666Y000355D01*
X014610Y000300D01*
X014657Y000347D02*
X014793Y000347D01*
X014747Y000446D02*
X014703Y000446D01*
M02*
