%
M48
M72
T01C0.0236
T02C0.0400
%
T01
X5725Y1775
X8100Y3150
X8850Y3400
X8600Y3900
X8100Y4275
X5225Y3650
X3975Y5025
X11225Y4400
X12350Y5025
X14600Y3150
X12350Y2275
X11225Y2900
T02
X4225Y650
X5225Y650
X6225Y650
X7225Y650
X8225Y650
X9225Y650
X10225Y650
X11225Y650
X12225Y650
X13225Y650
X14225Y650
X15225Y650
X15225Y1650
X15225Y2650
X15225Y3650
X15225Y4650
X15225Y5650
X15225Y6650
X14225Y6650
X13225Y6650
X12225Y6650
X11225Y6650
X10225Y6650
X9225Y6650
X8225Y6650
X7225Y6650
X6225Y6650
X5225Y6650
X4225Y6650
M30
