G75*
G70*
%OFA0B0*%
%FSLAX24Y24*%
%IPPOS*%
%LPD*%
%AMOC8*
5,1,8,0,0,1.08239X$1,22.5*
%
%ADD10R,0.3200X0.4700*%
%ADD11C,0.0740*%
%ADD12C,0.0560*%
%ADD13C,0.0400*%
%ADD14C,0.0436*%
%ADD15C,0.0100*%
%ADD16C,0.0120*%
D10*
X001800Y003700D03*
D11*
X004225Y006650D03*
X005225Y006650D03*
X006225Y006650D03*
X007225Y006650D03*
X008225Y006650D03*
X009225Y006650D03*
X010225Y006650D03*
X011225Y006650D03*
X012225Y006650D03*
X013225Y006650D03*
X014225Y006650D03*
X015225Y006650D03*
X015225Y005650D03*
X015225Y004650D03*
X015225Y003650D03*
X015225Y002650D03*
X015225Y001650D03*
X015225Y000650D03*
X014225Y000650D03*
X013225Y000650D03*
X012225Y000650D03*
X011225Y000650D03*
X010225Y000650D03*
X009225Y000650D03*
X008225Y000650D03*
X007225Y000650D03*
X006225Y000650D03*
X005225Y000650D03*
X004225Y000650D03*
D12*
X005725Y001775D02*
X005725Y001900D01*
X006100Y002275D01*
X008100Y002275D01*
X012350Y002275D01*
X012350Y005025D02*
X008100Y005025D01*
X003975Y005025D01*
X003975Y003650D01*
X005225Y003650D01*
D13*
X003975Y005025D02*
X004225Y005275D01*
X004225Y006650D01*
X008100Y005025D02*
X008100Y004275D01*
X008100Y003150D02*
X008100Y002275D01*
X015225Y001650D02*
X015225Y000650D01*
D14*
X012350Y002275D03*
X011225Y002900D03*
X008850Y003400D03*
X008100Y003150D03*
X008600Y003900D03*
X008100Y004275D03*
X005225Y003650D03*
X003975Y005025D03*
X005725Y001775D03*
X011225Y004400D03*
X012350Y005025D03*
X014600Y003150D03*
D15*
X003600Y001425D02*
X003600Y005925D01*
X003662Y005925D01*
X003750Y006013D01*
X003750Y006437D01*
X003780Y006377D01*
X003828Y006311D01*
X003886Y006253D01*
X003952Y006205D01*
X004025Y006168D01*
X004103Y006143D01*
X004175Y006131D01*
X004175Y006600D01*
X004275Y006600D01*
X004275Y006131D01*
X004347Y006143D01*
X004425Y006168D01*
X004498Y006205D01*
X004564Y006253D01*
X004622Y006311D01*
X004670Y006377D01*
X004707Y006450D01*
X004745Y006450D01*
X004707Y006450D02*
X004724Y006502D01*
X004784Y006355D01*
X004930Y006209D01*
X005122Y006130D01*
X005328Y006130D01*
X005520Y006209D01*
X005666Y006355D01*
X005725Y006498D01*
X005784Y006355D01*
X005930Y006209D01*
X006122Y006130D01*
X006328Y006130D01*
X006520Y006209D01*
X006666Y006355D01*
X006725Y006498D01*
X006784Y006355D01*
X006930Y006209D01*
X007122Y006130D01*
X007328Y006130D01*
X007520Y006209D01*
X007666Y006355D01*
X007725Y006498D01*
X007784Y006355D01*
X007930Y006209D01*
X008122Y006130D01*
X008328Y006130D01*
X008520Y006209D01*
X008666Y006355D01*
X008725Y006498D01*
X008784Y006355D01*
X008930Y006209D01*
X009122Y006130D01*
X009328Y006130D01*
X009520Y006209D01*
X009666Y006355D01*
X009725Y006498D01*
X009784Y006355D01*
X009930Y006209D01*
X010122Y006130D01*
X010328Y006130D01*
X010520Y006209D01*
X010666Y006355D01*
X010725Y006498D01*
X010784Y006355D01*
X010930Y006209D01*
X011122Y006130D01*
X011328Y006130D01*
X011520Y006209D01*
X011666Y006355D01*
X011725Y006498D01*
X011784Y006355D01*
X011930Y006209D01*
X012122Y006130D01*
X012328Y006130D01*
X012520Y006209D01*
X012666Y006355D01*
X012725Y006498D01*
X012784Y006355D01*
X012930Y006209D01*
X013122Y006130D01*
X013328Y006130D01*
X013520Y006209D01*
X013666Y006355D01*
X013725Y006498D01*
X013784Y006355D01*
X013930Y006209D01*
X014122Y006130D01*
X014328Y006130D01*
X014464Y006186D01*
X012888Y004610D01*
X011536Y004610D01*
X011434Y004712D01*
X011298Y004768D01*
X011152Y004768D01*
X011016Y004712D01*
X010913Y004609D01*
X010857Y004473D01*
X010857Y004327D01*
X010913Y004191D01*
X010994Y004110D01*
X008911Y004110D01*
X008809Y004212D01*
X008673Y004268D01*
X008527Y004268D01*
X008391Y004212D01*
X008288Y004109D01*
X008232Y003973D01*
X008232Y003840D01*
X008173Y003840D01*
X006133Y003840D01*
X006010Y003717D01*
X004015Y001722D01*
X004015Y001126D01*
X003930Y001091D01*
X003784Y000945D01*
X003750Y000862D01*
X003750Y001337D01*
X003662Y001425D01*
X003600Y001425D01*
X003600Y005925D01*
X003600Y005850D02*
X014128Y005850D01*
X014100Y005822D02*
X014100Y006139D01*
X014073Y006150D02*
X013377Y006150D01*
X013400Y006160D02*
X013400Y005122D01*
X013428Y005150D02*
X003600Y005150D01*
X003600Y005050D02*
X013328Y005050D01*
X013300Y005022D02*
X013300Y006130D01*
X013200Y006130D02*
X013200Y004922D01*
X013228Y004950D02*
X003600Y004950D01*
X003600Y004850D02*
X013128Y004850D01*
X013100Y004822D02*
X013100Y006139D01*
X013073Y006150D02*
X012377Y006150D01*
X012400Y006160D02*
X012400Y004610D01*
X012500Y004610D02*
X012500Y006201D01*
X012560Y006250D02*
X012890Y006250D01*
X012900Y006240D02*
X012900Y004622D01*
X012928Y004650D02*
X011496Y004650D01*
X011500Y004646D02*
X011500Y006201D01*
X011560Y006250D02*
X011890Y006250D01*
X011900Y006240D02*
X011900Y004610D01*
X011800Y004610D02*
X011800Y006340D01*
X011790Y006350D02*
X011660Y006350D01*
X011600Y006290D02*
X011600Y004610D01*
X011700Y004610D02*
X011700Y006438D01*
X011705Y006450D02*
X011745Y006450D01*
X012000Y006180D02*
X012000Y004610D01*
X012100Y004610D02*
X012100Y006139D01*
X012073Y006150D02*
X011377Y006150D01*
X011400Y006160D02*
X011400Y004726D01*
X011342Y004750D02*
X013028Y004750D01*
X013000Y004722D02*
X013000Y006180D01*
X012800Y006340D02*
X012800Y004610D01*
X012700Y004610D02*
X012700Y006438D01*
X012705Y006450D02*
X012745Y006450D01*
X012790Y006350D02*
X012660Y006350D01*
X012600Y006290D02*
X012600Y004610D01*
X012300Y004610D02*
X012300Y006130D01*
X012200Y006130D02*
X012200Y004610D01*
X011300Y004767D02*
X011300Y006130D01*
X011200Y006130D02*
X011200Y004768D01*
X011108Y004750D02*
X003600Y004750D01*
X003600Y004650D02*
X010954Y004650D01*
X011000Y004696D02*
X011000Y006180D01*
X011073Y006150D02*
X010377Y006150D01*
X010400Y006160D02*
X010400Y004110D01*
X010300Y004110D02*
X010300Y006130D01*
X010200Y006130D02*
X010200Y004110D01*
X010100Y004110D02*
X010100Y006139D01*
X010073Y006150D02*
X009377Y006150D01*
X009400Y006160D02*
X009400Y004110D01*
X009500Y004110D02*
X009500Y006201D01*
X009560Y006250D02*
X009890Y006250D01*
X009900Y006240D02*
X009900Y004110D01*
X010000Y004110D02*
X010000Y006180D01*
X009800Y006340D02*
X009800Y004110D01*
X009700Y004110D02*
X009700Y006438D01*
X009705Y006450D02*
X009745Y006450D01*
X009790Y006350D02*
X009660Y006350D01*
X009600Y006290D02*
X009600Y004110D01*
X009300Y004110D02*
X009300Y006130D01*
X009200Y006130D02*
X009200Y004110D01*
X009100Y004110D02*
X009100Y006139D01*
X009073Y006150D02*
X008377Y006150D01*
X008400Y006160D02*
X008400Y004216D01*
X008483Y004250D02*
X003600Y004250D01*
X003600Y004350D02*
X010857Y004350D01*
X010857Y004450D02*
X003600Y004450D01*
X003600Y004550D02*
X010889Y004550D01*
X010900Y004577D02*
X010900Y006240D01*
X010890Y006250D02*
X010560Y006250D01*
X010600Y006290D02*
X010600Y004110D01*
X010500Y004110D02*
X010500Y006201D01*
X010660Y006350D02*
X010790Y006350D01*
X010800Y006340D02*
X010800Y004110D01*
X010900Y004110D02*
X010900Y004223D01*
X010889Y004250D02*
X008717Y004250D01*
X008700Y004257D02*
X008700Y006438D01*
X008705Y006450D02*
X008745Y006450D01*
X008790Y006350D02*
X008660Y006350D01*
X008600Y006290D02*
X008600Y004268D01*
X008500Y004257D02*
X008500Y006201D01*
X008560Y006250D02*
X008890Y006250D01*
X008900Y006240D02*
X008900Y004121D01*
X008871Y004150D02*
X010954Y004150D01*
X010700Y004110D02*
X010700Y006438D01*
X010705Y006450D02*
X010745Y006450D01*
X011100Y006139D02*
X011100Y004747D01*
X011536Y004190D02*
X012888Y004190D01*
X013062Y004190D01*
X014761Y005889D01*
X014705Y005753D01*
X014705Y005547D01*
X014784Y005355D01*
X014930Y005209D01*
X015073Y005150D01*
X014022Y005150D01*
X014000Y005128D02*
X014000Y004110D01*
X014100Y004110D02*
X014100Y005228D01*
X014122Y005250D02*
X014890Y005250D01*
X014900Y005240D02*
X014900Y005060D01*
X014890Y005050D02*
X013922Y005050D01*
X013900Y005028D02*
X013900Y004110D01*
X013800Y004110D02*
X013800Y004928D01*
X013822Y004950D02*
X014790Y004950D01*
X014784Y004945D02*
X014705Y004753D01*
X014705Y004547D01*
X014740Y004462D01*
X014388Y004110D01*
X011456Y004110D01*
X011536Y004190D01*
X011500Y004154D02*
X011500Y004110D01*
X011496Y004150D02*
X014428Y004150D01*
X014400Y004122D02*
X014400Y005528D01*
X014422Y005550D02*
X014705Y005550D01*
X014705Y005650D02*
X014522Y005650D01*
X014500Y005628D02*
X014500Y004222D01*
X014528Y004250D02*
X013122Y004250D01*
X013100Y004228D02*
X013100Y004110D01*
X013000Y004110D02*
X013000Y004190D01*
X012900Y004190D02*
X012900Y004110D01*
X012800Y004110D02*
X012800Y004190D01*
X012700Y004190D02*
X012700Y004110D01*
X012600Y004110D02*
X012600Y004190D01*
X012500Y004190D02*
X012500Y004110D01*
X012400Y004110D02*
X012400Y004190D01*
X012300Y004190D02*
X012300Y004110D01*
X012200Y004110D02*
X012200Y004190D01*
X012100Y004190D02*
X012100Y004110D01*
X012000Y004110D02*
X012000Y004190D01*
X011900Y004190D02*
X011900Y004110D01*
X011800Y004110D02*
X011800Y004190D01*
X011700Y004190D02*
X011700Y004110D01*
X011600Y004110D02*
X011600Y004190D01*
X011600Y003690D02*
X011600Y003610D01*
X011700Y003610D02*
X011700Y003690D01*
X011800Y003690D02*
X011800Y003610D01*
X011900Y003610D02*
X011900Y003690D01*
X012000Y003690D02*
X012000Y003610D01*
X012100Y003610D02*
X012100Y003690D01*
X012200Y003690D02*
X012200Y003610D01*
X012300Y003610D02*
X012300Y003690D01*
X012400Y003690D02*
X012400Y003610D01*
X012500Y003610D02*
X012500Y003690D01*
X012600Y003690D02*
X012600Y003610D01*
X012700Y003610D02*
X012700Y003690D01*
X012800Y003690D02*
X012800Y003610D01*
X012900Y003610D02*
X012900Y003690D01*
X013000Y003690D02*
X013000Y003610D01*
X013100Y003610D02*
X013100Y003690D01*
X013200Y003690D02*
X013200Y003610D01*
X013300Y003610D02*
X013300Y003690D01*
X013400Y003690D02*
X013400Y003610D01*
X013500Y003610D02*
X013500Y003690D01*
X013600Y003690D02*
X013600Y003610D01*
X013700Y003610D02*
X013700Y003690D01*
X013800Y003690D02*
X013800Y003610D01*
X013900Y003610D02*
X013900Y003690D01*
X014000Y003690D02*
X014000Y003610D01*
X014100Y003610D02*
X014100Y003690D01*
X014200Y003690D02*
X014200Y003610D01*
X014300Y003610D02*
X014300Y003690D01*
X014400Y003690D02*
X014400Y003610D01*
X014437Y003610D02*
X009161Y003610D01*
X009081Y003690D01*
X014562Y003690D01*
X014685Y003813D01*
X014685Y003813D01*
X014761Y003889D01*
X014705Y003753D01*
X014705Y003547D01*
X014726Y003496D01*
X014673Y003518D01*
X014529Y003518D01*
X014437Y003610D01*
X014497Y003550D02*
X014705Y003550D01*
X014700Y003507D02*
X014700Y003828D01*
X014722Y003850D02*
X014745Y003850D01*
X014705Y003750D02*
X014622Y003750D01*
X014600Y003728D02*
X014600Y003518D01*
X014500Y003547D02*
X014500Y003690D01*
X014705Y003650D02*
X009121Y003650D01*
X009100Y003671D02*
X009100Y003690D01*
X009200Y003690D02*
X009200Y003610D01*
X009300Y003610D02*
X009300Y003690D01*
X009400Y003690D02*
X009400Y003610D01*
X009500Y003610D02*
X009500Y003690D01*
X009600Y003690D02*
X009600Y003610D01*
X009700Y003610D02*
X009700Y003690D01*
X009800Y003690D02*
X009800Y003610D01*
X009900Y003610D02*
X009900Y003690D01*
X010000Y003690D02*
X010000Y003610D01*
X010100Y003610D02*
X010100Y003690D01*
X010200Y003690D02*
X010200Y003610D01*
X010300Y003610D02*
X010300Y003690D01*
X010400Y003690D02*
X010400Y003610D01*
X010500Y003610D02*
X010500Y003690D01*
X010600Y003690D02*
X010600Y003610D01*
X010700Y003610D02*
X010700Y003690D01*
X010800Y003690D02*
X010800Y003610D01*
X010900Y003610D02*
X010900Y003690D01*
X011000Y003690D02*
X011000Y003610D01*
X011100Y003610D02*
X011100Y003690D01*
X011200Y003690D02*
X011200Y003610D01*
X011300Y003610D02*
X011300Y003690D01*
X011400Y003690D02*
X011400Y003610D01*
X011500Y003610D02*
X011500Y003690D01*
X011500Y003190D02*
X011500Y003146D01*
X011496Y003150D02*
X014232Y003150D01*
X014232Y003190D02*
X014232Y003077D01*
X014240Y003057D01*
X014187Y003110D01*
X011536Y003110D01*
X011456Y003190D01*
X014232Y003190D01*
X014200Y003190D02*
X014200Y003097D01*
X014100Y003110D02*
X014100Y003190D01*
X014000Y003190D02*
X014000Y003110D01*
X013900Y003110D02*
X013900Y003190D01*
X013800Y003190D02*
X013800Y003110D01*
X013700Y003110D02*
X013700Y003190D01*
X013600Y003190D02*
X013600Y003110D01*
X013500Y003110D02*
X013500Y003190D01*
X013400Y003190D02*
X013400Y003110D01*
X013300Y003110D02*
X013300Y003190D01*
X013200Y003190D02*
X013200Y003110D01*
X013100Y003110D02*
X013100Y003190D01*
X013000Y003190D02*
X013000Y003110D01*
X012900Y003110D02*
X012900Y003190D01*
X012800Y003190D02*
X012800Y003110D01*
X012700Y003110D02*
X012700Y003190D01*
X012600Y003190D02*
X012600Y003110D01*
X012500Y003110D02*
X012500Y003190D01*
X012400Y003190D02*
X012400Y003110D01*
X012300Y003110D02*
X012300Y003190D01*
X012200Y003190D02*
X012200Y003110D01*
X012100Y003110D02*
X012100Y003190D01*
X012000Y003190D02*
X012000Y003110D01*
X011900Y003110D02*
X011900Y003190D01*
X011800Y003190D02*
X011800Y003110D01*
X011700Y003110D02*
X011700Y003190D01*
X011600Y003190D02*
X011600Y003110D01*
X010994Y003190D02*
X009161Y003190D01*
X009059Y003088D01*
X008923Y003032D01*
X008777Y003032D01*
X008641Y003088D01*
X008538Y003191D01*
X008493Y003300D01*
X008436Y003300D01*
X008468Y003223D01*
X008468Y003077D01*
X008450Y003033D01*
X008450Y002705D01*
X010907Y002705D01*
X010857Y002827D01*
X010857Y002973D01*
X010913Y003109D01*
X010994Y003190D01*
X010954Y003150D02*
X009121Y003150D01*
X009100Y003129D02*
X009100Y002705D01*
X009200Y002705D02*
X009200Y003190D01*
X009300Y003190D02*
X009300Y002705D01*
X009400Y002705D02*
X009400Y003190D01*
X009500Y003190D02*
X009500Y002705D01*
X009600Y002705D02*
X009600Y003190D01*
X009700Y003190D02*
X009700Y002705D01*
X009800Y002705D02*
X009800Y003190D01*
X009900Y003190D02*
X009900Y002705D01*
X010000Y002705D02*
X010000Y003190D01*
X010100Y003190D02*
X010100Y002705D01*
X010200Y002705D02*
X010200Y003190D01*
X010300Y003190D02*
X010300Y002705D01*
X010400Y002705D02*
X010400Y003190D01*
X010500Y003190D02*
X010500Y002705D01*
X010600Y002705D02*
X010600Y003190D01*
X010700Y003190D02*
X010700Y002705D01*
X010800Y002705D02*
X010800Y003190D01*
X010900Y003190D02*
X010900Y003077D01*
X010889Y003050D02*
X008967Y003050D01*
X009000Y003064D02*
X009000Y002705D01*
X008900Y002705D02*
X008900Y003032D01*
X008800Y003032D02*
X008800Y002705D01*
X008700Y002705D02*
X008700Y003064D01*
X008733Y003050D02*
X008457Y003050D01*
X008450Y002950D02*
X010857Y002950D01*
X010857Y002850D02*
X008450Y002850D01*
X008450Y002750D02*
X010889Y002750D01*
X010900Y002723D02*
X010900Y002705D01*
X012472Y002690D02*
X013890Y002690D01*
X013890Y001050D01*
X013560Y001050D01*
X013600Y001010D02*
X013600Y002690D01*
X013500Y002690D02*
X013500Y001099D01*
X013520Y001091D02*
X013328Y001170D01*
X013122Y001170D01*
X012930Y001091D01*
X012784Y000945D01*
X012725Y000802D01*
X012666Y000945D01*
X012520Y001091D01*
X012328Y001170D01*
X012122Y001170D01*
X011930Y001091D01*
X011784Y000945D01*
X011725Y000802D01*
X011666Y000945D01*
X011520Y001091D01*
X011328Y001170D01*
X011122Y001170D01*
X010930Y001091D01*
X010784Y000945D01*
X010725Y000802D01*
X010666Y000945D01*
X010520Y001091D01*
X010328Y001170D01*
X010122Y001170D01*
X009930Y001091D01*
X009784Y000945D01*
X009725Y000802D01*
X009666Y000945D01*
X009520Y001091D01*
X009328Y001170D01*
X009122Y001170D01*
X008930Y001091D01*
X008784Y000945D01*
X008725Y000802D01*
X008666Y000945D01*
X008520Y001091D01*
X008328Y001170D01*
X008122Y001170D01*
X007930Y001091D01*
X007784Y000945D01*
X007725Y000802D01*
X007666Y000945D01*
X007520Y001091D01*
X007328Y001170D01*
X007122Y001170D01*
X006930Y001091D01*
X006784Y000945D01*
X006725Y000802D01*
X006666Y000945D01*
X006520Y001091D01*
X006328Y001170D01*
X006122Y001170D01*
X005930Y001091D01*
X005784Y000945D01*
X005725Y000802D01*
X005666Y000945D01*
X005520Y001091D01*
X005328Y001170D01*
X005122Y001170D01*
X004930Y001091D01*
X004784Y000945D01*
X004725Y000802D01*
X004666Y000945D01*
X004520Y001091D01*
X004435Y001126D01*
X004435Y001548D01*
X006307Y003420D01*
X007849Y003420D01*
X007788Y003359D01*
X007732Y003223D01*
X007732Y003077D01*
X007750Y003033D01*
X007750Y002705D01*
X006014Y002705D01*
X005856Y002640D01*
X005735Y002519D01*
X005360Y002144D01*
X005295Y001986D01*
X005295Y001689D01*
X005360Y001531D01*
X005481Y001410D01*
X005639Y001345D01*
X005811Y001345D01*
X005969Y001410D01*
X006090Y001531D01*
X006155Y001689D01*
X006155Y001722D01*
X006278Y001845D01*
X012436Y001845D01*
X012594Y001910D01*
X012715Y002031D01*
X012780Y002189D01*
X012780Y002361D01*
X012715Y002519D01*
X012594Y002640D01*
X012472Y002690D01*
X012500Y002690D02*
X012500Y002678D01*
X012568Y002650D02*
X013890Y002650D01*
X013800Y002690D02*
X013800Y000960D01*
X013790Y000950D02*
X013660Y000950D01*
X013666Y000945D02*
X013520Y001091D01*
X013400Y001140D02*
X013400Y002690D01*
X013300Y002690D02*
X013300Y001170D01*
X013377Y001150D02*
X013890Y001150D01*
X013890Y001050D02*
X013784Y000945D01*
X013725Y000802D01*
X013666Y000945D01*
X013700Y000862D02*
X013700Y002690D01*
X013890Y002550D02*
X012683Y002550D01*
X012700Y002533D02*
X012700Y002690D01*
X012800Y002690D02*
X012800Y000960D01*
X012790Y000950D02*
X012660Y000950D01*
X012600Y001010D02*
X012600Y001917D01*
X012633Y001950D02*
X013890Y001950D01*
X013890Y001850D02*
X012448Y001850D01*
X012400Y001845D02*
X012400Y001140D01*
X012377Y001150D02*
X013073Y001150D01*
X013100Y001161D02*
X013100Y002690D01*
X013000Y002690D02*
X013000Y001120D01*
X012900Y001060D02*
X012900Y002690D01*
X012600Y002690D02*
X012600Y002633D01*
X012743Y002450D02*
X013890Y002450D01*
X013890Y002350D02*
X012780Y002350D01*
X012780Y002250D02*
X013890Y002250D01*
X013890Y002150D02*
X012764Y002150D01*
X012722Y002050D02*
X013890Y002050D01*
X014310Y002050D02*
X014890Y002050D01*
X014900Y002060D02*
X014900Y002243D01*
X014891Y002250D02*
X014310Y002250D01*
X014310Y002150D02*
X015073Y002150D01*
X015077Y002151D02*
X014930Y002091D01*
X014784Y001945D01*
X014705Y001753D01*
X014705Y001547D01*
X014784Y001355D01*
X014875Y001265D01*
X014875Y001035D01*
X014784Y000945D01*
X014725Y000802D01*
X014666Y000945D01*
X014520Y001091D01*
X014328Y001170D01*
X014310Y001170D01*
X014310Y002919D01*
X014391Y002838D01*
X014527Y002782D01*
X014673Y002782D01*
X014729Y002805D01*
X014718Y002772D01*
X014706Y002700D01*
X015175Y002700D01*
X015175Y002600D01*
X014706Y002600D01*
X014718Y002528D01*
X014743Y002450D01*
X014310Y002450D01*
X014310Y002350D02*
X014800Y002350D01*
X014800Y001960D01*
X014790Y001950D02*
X014310Y001950D01*
X014310Y001850D02*
X014745Y001850D01*
X014705Y001750D02*
X014310Y001750D01*
X014310Y001650D02*
X014705Y001650D01*
X014705Y001550D02*
X014310Y001550D01*
X014310Y001450D02*
X014745Y001450D01*
X014790Y001350D02*
X014310Y001350D01*
X014310Y001250D02*
X014875Y001250D01*
X014800Y001340D02*
X014800Y000960D01*
X014790Y000950D02*
X014660Y000950D01*
X014600Y001010D02*
X014600Y002782D01*
X014500Y002793D02*
X014500Y001099D01*
X014560Y001050D02*
X014875Y001050D01*
X014875Y001150D02*
X014377Y001150D01*
X014400Y001140D02*
X014400Y002834D01*
X014379Y002850D02*
X014310Y002850D01*
X014310Y002750D02*
X014714Y002750D01*
X014700Y002793D02*
X014700Y000862D01*
X014705Y000850D02*
X014745Y000850D01*
X014725Y000498D02*
X014784Y000355D01*
X014840Y000300D01*
X014610Y000300D01*
X014666Y000355D01*
X014725Y000498D01*
X014705Y000450D02*
X014745Y000450D01*
X014700Y000438D02*
X014700Y000300D01*
X014660Y000350D02*
X014790Y000350D01*
X014800Y000340D02*
X014800Y000300D01*
X013840Y000300D02*
X013610Y000300D01*
X013666Y000355D01*
X013725Y000498D01*
X013784Y000355D01*
X013840Y000300D01*
X013800Y000300D02*
X013800Y000340D01*
X013790Y000350D02*
X013660Y000350D01*
X013700Y000300D02*
X013700Y000438D01*
X013705Y000450D02*
X013745Y000450D01*
X013745Y000850D02*
X013705Y000850D01*
X013200Y001170D02*
X013200Y002690D01*
X014310Y002650D02*
X015175Y002650D01*
X015100Y002600D02*
X015100Y002700D01*
X015000Y002700D02*
X015000Y002600D01*
X014900Y002600D02*
X014900Y002700D01*
X014800Y002700D02*
X014800Y002600D01*
X014714Y002550D02*
X014310Y002550D01*
X014743Y002450D02*
X014780Y002377D01*
X014828Y002311D01*
X014886Y002253D01*
X014952Y002205D01*
X015025Y002168D01*
X015077Y002151D01*
X015000Y002181D02*
X015000Y002120D01*
X015373Y002151D02*
X015425Y002168D01*
X015498Y002205D01*
X015564Y002253D01*
X015575Y002265D01*
X015575Y002035D01*
X015520Y002091D01*
X015373Y002151D01*
X015377Y002150D02*
X015575Y002150D01*
X015500Y002099D02*
X015500Y002207D01*
X015559Y002250D02*
X015575Y002250D01*
X015400Y002160D02*
X015400Y002140D01*
X015560Y002050D02*
X015575Y002050D01*
X015575Y001265D02*
X015575Y001265D01*
X015575Y001035D01*
X015575Y001035D01*
X015575Y001265D01*
X015575Y001250D02*
X015575Y001250D01*
X015575Y001150D02*
X015575Y001150D01*
X015575Y001050D02*
X015575Y001050D01*
X013890Y001250D02*
X004435Y001250D01*
X004435Y001350D02*
X005627Y001350D01*
X005600Y001361D02*
X005600Y001010D01*
X005560Y001050D02*
X005890Y001050D01*
X005900Y001060D02*
X005900Y001382D01*
X005823Y001350D02*
X013890Y001350D01*
X013890Y001450D02*
X006008Y001450D01*
X006000Y001442D02*
X006000Y001120D01*
X006073Y001150D02*
X005377Y001150D01*
X005400Y001140D02*
X005400Y001492D01*
X005442Y001450D02*
X004435Y001450D01*
X004437Y001550D02*
X005353Y001550D01*
X005311Y001650D02*
X004537Y001650D01*
X004500Y001613D02*
X004500Y001099D01*
X004560Y001050D02*
X004890Y001050D01*
X004900Y001060D02*
X004900Y002013D01*
X004937Y002050D02*
X005322Y002050D01*
X005300Y001998D02*
X005300Y002413D01*
X005337Y002450D02*
X005667Y002450D01*
X005700Y002483D02*
X005700Y002813D01*
X005737Y002850D02*
X007750Y002850D01*
X007750Y002950D02*
X005837Y002950D01*
X005800Y002913D02*
X005800Y002583D01*
X005767Y002550D02*
X005437Y002550D01*
X005400Y002513D02*
X005400Y002183D01*
X005367Y002150D02*
X005037Y002150D01*
X005000Y002113D02*
X005000Y001120D01*
X005073Y001150D02*
X004435Y001150D01*
X004600Y001010D02*
X004600Y001713D01*
X004637Y001750D02*
X005295Y001750D01*
X005300Y001677D02*
X005300Y001170D01*
X005200Y001170D02*
X005200Y002313D01*
X005237Y002350D02*
X005567Y002350D01*
X005600Y002383D02*
X005600Y002713D01*
X005637Y002750D02*
X007750Y002750D01*
X007700Y002705D02*
X007700Y003420D01*
X007600Y003420D02*
X007600Y002705D01*
X007500Y002705D02*
X007500Y003420D01*
X007400Y003420D02*
X007400Y002705D01*
X007300Y002705D02*
X007300Y003420D01*
X007200Y003420D02*
X007200Y002705D01*
X007100Y002705D02*
X007100Y003420D01*
X007000Y003420D02*
X007000Y002705D01*
X006900Y002705D02*
X006900Y003420D01*
X006800Y003420D02*
X006800Y002705D01*
X006700Y002705D02*
X006700Y003420D01*
X006600Y003420D02*
X006600Y002705D01*
X006500Y002705D02*
X006500Y003420D01*
X006400Y003420D02*
X006400Y002705D01*
X006300Y002705D02*
X006300Y003413D01*
X006237Y003350D02*
X007784Y003350D01*
X007800Y003371D02*
X007800Y003420D01*
X007743Y003250D02*
X006137Y003250D01*
X006100Y003213D02*
X006100Y002705D01*
X006200Y002705D02*
X006200Y003313D01*
X006037Y003150D02*
X007732Y003150D01*
X007743Y003050D02*
X005937Y003050D01*
X005900Y003013D02*
X005900Y002658D01*
X005882Y002650D02*
X005537Y002650D01*
X005500Y002613D02*
X005500Y002283D01*
X005467Y002250D02*
X005137Y002250D01*
X005100Y002213D02*
X005100Y001161D01*
X004800Y000960D02*
X004800Y001913D01*
X004837Y001950D02*
X005295Y001950D01*
X005295Y001850D02*
X004737Y001850D01*
X004700Y001813D02*
X004700Y000862D01*
X004705Y000850D02*
X004745Y000850D01*
X004790Y000950D02*
X004660Y000950D01*
X004015Y001150D02*
X003750Y001150D01*
X003750Y001050D02*
X003890Y001050D01*
X003900Y001060D02*
X003900Y006243D01*
X003891Y006250D02*
X003750Y006250D01*
X003750Y006150D02*
X004081Y006150D01*
X004100Y006144D02*
X004100Y001807D01*
X004143Y001850D02*
X003600Y001850D01*
X003600Y001950D02*
X004243Y001950D01*
X004200Y001907D02*
X004200Y006600D01*
X004175Y006550D02*
X004275Y006550D01*
X004275Y006450D02*
X004175Y006450D01*
X004175Y006350D02*
X004275Y006350D01*
X004275Y006250D02*
X004175Y006250D01*
X004175Y006150D02*
X004275Y006150D01*
X004300Y006135D02*
X004300Y002007D01*
X004343Y002050D02*
X003600Y002050D01*
X003600Y002150D02*
X004443Y002150D01*
X004400Y002107D02*
X004400Y006160D01*
X004369Y006150D02*
X005073Y006150D01*
X005100Y006139D02*
X005100Y002807D01*
X005143Y002850D02*
X003600Y002850D01*
X003600Y002950D02*
X005243Y002950D01*
X005200Y002907D02*
X005200Y006130D01*
X005300Y006130D02*
X005300Y003007D01*
X005343Y003050D02*
X003600Y003050D01*
X003600Y003150D02*
X005443Y003150D01*
X005400Y003107D02*
X005400Y006160D01*
X005377Y006150D02*
X006073Y006150D01*
X006100Y006139D02*
X006100Y003807D01*
X006043Y003750D02*
X003600Y003750D01*
X003600Y003650D02*
X005943Y003650D01*
X005900Y003607D02*
X005900Y006240D01*
X005890Y006250D02*
X005560Y006250D01*
X005600Y006290D02*
X005600Y003307D01*
X005643Y003350D02*
X003600Y003350D01*
X003600Y003250D02*
X005543Y003250D01*
X005500Y003207D02*
X005500Y006201D01*
X005660Y006350D02*
X005790Y006350D01*
X005800Y006340D02*
X005800Y003507D01*
X005843Y003550D02*
X003600Y003550D01*
X003600Y003450D02*
X005743Y003450D01*
X005700Y003407D02*
X005700Y006438D01*
X005705Y006450D02*
X005745Y006450D01*
X006000Y006180D02*
X006000Y003707D01*
X006200Y003840D02*
X006200Y006130D01*
X006300Y006130D02*
X006300Y003840D01*
X006400Y003840D02*
X006400Y006160D01*
X006377Y006150D02*
X007073Y006150D01*
X007100Y006139D02*
X007100Y003840D01*
X007000Y003840D02*
X007000Y006180D01*
X006900Y006240D02*
X006900Y003840D01*
X006800Y003840D02*
X006800Y006340D01*
X006790Y006350D02*
X006660Y006350D01*
X006600Y006290D02*
X006600Y003840D01*
X006500Y003840D02*
X006500Y006201D01*
X006560Y006250D02*
X006890Y006250D01*
X007200Y006130D02*
X007200Y003840D01*
X007300Y003840D02*
X007300Y006130D01*
X007377Y006150D02*
X008073Y006150D01*
X008100Y006139D02*
X008100Y003840D01*
X008200Y003840D02*
X008200Y006130D01*
X008300Y006130D02*
X008300Y004121D01*
X008329Y004150D02*
X003600Y004150D01*
X003600Y004050D02*
X008264Y004050D01*
X008232Y003950D02*
X003600Y003950D01*
X003600Y003850D02*
X008232Y003850D01*
X008000Y003840D02*
X008000Y006180D01*
X007900Y006240D02*
X007900Y003840D01*
X007800Y003840D02*
X007800Y006340D01*
X007790Y006350D02*
X007660Y006350D01*
X007600Y006290D02*
X007600Y003840D01*
X007500Y003840D02*
X007500Y006201D01*
X007560Y006250D02*
X007890Y006250D01*
X007745Y006450D02*
X007705Y006450D01*
X007700Y006438D02*
X007700Y003840D01*
X007400Y003840D02*
X007400Y006160D01*
X006745Y006450D02*
X006705Y006450D01*
X006700Y006438D02*
X006700Y003840D01*
X006000Y003113D02*
X006000Y002699D01*
X005043Y002750D02*
X003600Y002750D01*
X003600Y002650D02*
X004943Y002650D01*
X004900Y002607D02*
X004900Y006240D01*
X004890Y006250D02*
X004559Y006250D01*
X004600Y006290D02*
X004600Y002307D01*
X004643Y002350D02*
X003600Y002350D01*
X003600Y002450D02*
X004743Y002450D01*
X004700Y002407D02*
X004700Y006437D01*
X004650Y006350D02*
X004790Y006350D01*
X004800Y006340D02*
X004800Y002507D01*
X004843Y002550D02*
X003600Y002550D01*
X003600Y002250D02*
X004543Y002250D01*
X004500Y002207D02*
X004500Y006207D01*
X004000Y006181D02*
X004000Y001120D01*
X004015Y001250D02*
X003750Y001250D01*
X003737Y001350D02*
X004015Y001350D01*
X004015Y001450D02*
X003600Y001450D01*
X003700Y001387D02*
X003700Y005963D01*
X003687Y005950D02*
X014228Y005950D01*
X014200Y005922D02*
X014200Y006130D01*
X014300Y006130D02*
X014300Y006022D01*
X014328Y006050D02*
X003750Y006050D01*
X003750Y006350D02*
X003800Y006350D01*
X003800Y000960D01*
X003790Y000950D02*
X003750Y000950D01*
X004725Y000498D02*
X004784Y000355D01*
X004840Y000300D01*
X004610Y000300D01*
X004666Y000355D01*
X004725Y000498D01*
X004705Y000450D02*
X004745Y000450D01*
X004700Y000438D02*
X004700Y000300D01*
X004660Y000350D02*
X004790Y000350D01*
X004800Y000340D02*
X004800Y000300D01*
X005610Y000300D02*
X005840Y000300D01*
X005784Y000355D01*
X005725Y000498D01*
X005666Y000355D01*
X005610Y000300D01*
X005660Y000350D02*
X005790Y000350D01*
X005800Y000340D02*
X005800Y000300D01*
X005700Y000300D02*
X005700Y000438D01*
X005705Y000450D02*
X005745Y000450D01*
X005745Y000850D02*
X005705Y000850D01*
X005700Y000862D02*
X005700Y001345D01*
X005800Y001345D02*
X005800Y000960D01*
X005790Y000950D02*
X005660Y000950D01*
X005500Y001099D02*
X005500Y001403D01*
X006097Y001550D02*
X013890Y001550D01*
X013890Y001650D02*
X006139Y001650D01*
X006100Y001557D02*
X006100Y001161D01*
X006200Y001170D02*
X006200Y001767D01*
X006183Y001750D02*
X013890Y001750D01*
X012700Y002017D02*
X012700Y000862D01*
X012705Y000850D02*
X012745Y000850D01*
X012890Y001050D02*
X012560Y001050D01*
X012500Y001099D02*
X012500Y001872D01*
X012300Y001845D02*
X012300Y001170D01*
X012200Y001170D02*
X012200Y001845D01*
X012100Y001845D02*
X012100Y001161D01*
X012073Y001150D02*
X011377Y001150D01*
X011400Y001140D02*
X011400Y001845D01*
X011300Y001845D02*
X011300Y001170D01*
X011200Y001170D02*
X011200Y001845D01*
X011100Y001845D02*
X011100Y001161D01*
X011073Y001150D02*
X010377Y001150D01*
X010400Y001140D02*
X010400Y001845D01*
X010300Y001845D02*
X010300Y001170D01*
X010200Y001170D02*
X010200Y001845D01*
X010100Y001845D02*
X010100Y001161D01*
X010073Y001150D02*
X009377Y001150D01*
X009400Y001140D02*
X009400Y001845D01*
X009500Y001845D02*
X009500Y001099D01*
X009560Y001050D02*
X009890Y001050D01*
X009900Y001060D02*
X009900Y001845D01*
X010000Y001845D02*
X010000Y001120D01*
X009800Y000960D02*
X009800Y001845D01*
X009700Y001845D02*
X009700Y000862D01*
X009705Y000850D02*
X009745Y000850D01*
X009790Y000950D02*
X009660Y000950D01*
X009600Y001010D02*
X009600Y001845D01*
X009300Y001845D02*
X009300Y001170D01*
X009200Y001170D02*
X009200Y001845D01*
X009100Y001845D02*
X009100Y001161D01*
X009073Y001150D02*
X008377Y001150D01*
X008400Y001140D02*
X008400Y001845D01*
X008300Y001845D02*
X008300Y001170D01*
X008200Y001170D02*
X008200Y001845D01*
X008100Y001845D02*
X008100Y001161D01*
X008073Y001150D02*
X007377Y001150D01*
X007400Y001140D02*
X007400Y001845D01*
X007300Y001845D02*
X007300Y001170D01*
X007200Y001170D02*
X007200Y001845D01*
X007100Y001845D02*
X007100Y001161D01*
X007073Y001150D02*
X006377Y001150D01*
X006400Y001140D02*
X006400Y001845D01*
X006500Y001845D02*
X006500Y001099D01*
X006560Y001050D02*
X006890Y001050D01*
X006900Y001060D02*
X006900Y001845D01*
X006800Y001845D02*
X006800Y000960D01*
X006790Y000950D02*
X006660Y000950D01*
X006600Y001010D02*
X006600Y001845D01*
X006700Y001845D02*
X006700Y000862D01*
X006705Y000850D02*
X006745Y000850D01*
X007000Y001120D02*
X007000Y001845D01*
X007500Y001845D02*
X007500Y001099D01*
X007560Y001050D02*
X007890Y001050D01*
X007900Y001060D02*
X007900Y001845D01*
X007800Y001845D02*
X007800Y000960D01*
X007790Y000950D02*
X007660Y000950D01*
X007600Y001010D02*
X007600Y001845D01*
X007700Y001845D02*
X007700Y000862D01*
X007705Y000850D02*
X007745Y000850D01*
X008000Y001120D02*
X008000Y001845D01*
X008500Y001845D02*
X008500Y001099D01*
X008560Y001050D02*
X008890Y001050D01*
X008900Y001060D02*
X008900Y001845D01*
X009000Y001845D02*
X009000Y001120D01*
X008800Y000960D02*
X008800Y001845D01*
X008700Y001845D02*
X008700Y000862D01*
X008705Y000850D02*
X008745Y000850D01*
X008790Y000950D02*
X008660Y000950D01*
X008600Y001010D02*
X008600Y001845D01*
X008600Y002705D02*
X008600Y003129D01*
X008579Y003150D02*
X008468Y003150D01*
X008457Y003250D02*
X008514Y003250D01*
X008500Y003283D02*
X008500Y002705D01*
X010500Y001845D02*
X010500Y001099D01*
X010560Y001050D02*
X010890Y001050D01*
X010900Y001060D02*
X010900Y001845D01*
X010800Y001845D02*
X010800Y000960D01*
X010790Y000950D02*
X010660Y000950D01*
X010600Y001010D02*
X010600Y001845D01*
X010700Y001845D02*
X010700Y000862D01*
X010705Y000850D02*
X010745Y000850D01*
X011000Y001120D02*
X011000Y001845D01*
X011500Y001845D02*
X011500Y001099D01*
X011560Y001050D02*
X011890Y001050D01*
X011900Y001060D02*
X011900Y001845D01*
X011800Y001845D02*
X011800Y000960D01*
X011790Y000950D02*
X011660Y000950D01*
X011600Y001010D02*
X011600Y001845D01*
X011700Y001845D02*
X011700Y000862D01*
X011705Y000850D02*
X011745Y000850D01*
X012000Y001120D02*
X012000Y001845D01*
X011725Y000498D02*
X011784Y000355D01*
X011840Y000300D01*
X011610Y000300D01*
X011666Y000355D01*
X011725Y000498D01*
X011705Y000450D02*
X011745Y000450D01*
X011700Y000438D02*
X011700Y000300D01*
X011660Y000350D02*
X011790Y000350D01*
X011800Y000340D02*
X011800Y000300D01*
X012610Y000300D02*
X012840Y000300D01*
X012784Y000355D01*
X012725Y000498D01*
X012666Y000355D01*
X012610Y000300D01*
X012660Y000350D02*
X012790Y000350D01*
X012800Y000340D02*
X012800Y000300D01*
X012700Y000300D02*
X012700Y000438D01*
X012705Y000450D02*
X012745Y000450D01*
X010840Y000300D02*
X010610Y000300D01*
X010666Y000355D01*
X010725Y000498D01*
X010784Y000355D01*
X010840Y000300D01*
X010800Y000300D02*
X010800Y000340D01*
X010790Y000350D02*
X010660Y000350D01*
X010700Y000300D02*
X010700Y000438D01*
X010705Y000450D02*
X010745Y000450D01*
X009840Y000300D02*
X009610Y000300D01*
X009666Y000355D01*
X009725Y000498D01*
X009784Y000355D01*
X009840Y000300D01*
X009800Y000300D02*
X009800Y000340D01*
X009790Y000350D02*
X009660Y000350D01*
X009700Y000300D02*
X009700Y000438D01*
X009705Y000450D02*
X009745Y000450D01*
X008840Y000300D02*
X008610Y000300D01*
X008666Y000355D01*
X008725Y000498D01*
X008784Y000355D01*
X008840Y000300D01*
X008800Y000300D02*
X008800Y000340D01*
X008790Y000350D02*
X008660Y000350D01*
X008700Y000300D02*
X008700Y000438D01*
X008705Y000450D02*
X008745Y000450D01*
X007840Y000300D02*
X007610Y000300D01*
X007666Y000355D01*
X007725Y000498D01*
X007784Y000355D01*
X007840Y000300D01*
X007800Y000300D02*
X007800Y000340D01*
X007790Y000350D02*
X007660Y000350D01*
X007700Y000300D02*
X007700Y000438D01*
X007705Y000450D02*
X007745Y000450D01*
X006840Y000300D02*
X006610Y000300D01*
X006666Y000355D01*
X006725Y000498D01*
X006784Y000355D01*
X006840Y000300D01*
X006800Y000300D02*
X006800Y000340D01*
X006790Y000350D02*
X006660Y000350D01*
X006700Y000300D02*
X006700Y000438D01*
X006705Y000450D02*
X006745Y000450D01*
X006300Y001170D02*
X006300Y001845D01*
X005000Y002707D02*
X005000Y006180D01*
X004724Y006798D02*
X004707Y006850D01*
X004745Y006850D01*
X004707Y006850D02*
X004670Y006923D01*
X004622Y006989D01*
X004610Y007000D01*
X004840Y007000D01*
X004784Y006945D01*
X004724Y006798D01*
X004700Y006863D02*
X004700Y007000D01*
X004650Y006950D02*
X004790Y006950D01*
X004800Y006960D02*
X004800Y007000D01*
X005610Y007000D02*
X005840Y007000D01*
X005784Y006945D01*
X005725Y006802D01*
X005666Y006945D01*
X005610Y007000D01*
X005660Y006950D02*
X005790Y006950D01*
X005800Y006960D02*
X005800Y007000D01*
X005700Y007000D02*
X005700Y006862D01*
X005705Y006850D02*
X005745Y006850D01*
X006610Y007000D02*
X006840Y007000D01*
X006784Y006945D01*
X006725Y006802D01*
X006666Y006945D01*
X006610Y007000D01*
X006660Y006950D02*
X006790Y006950D01*
X006800Y006960D02*
X006800Y007000D01*
X006700Y007000D02*
X006700Y006862D01*
X006705Y006850D02*
X006745Y006850D01*
X007610Y007000D02*
X007840Y007000D01*
X007784Y006945D01*
X007725Y006802D01*
X007666Y006945D01*
X007610Y007000D01*
X007660Y006950D02*
X007790Y006950D01*
X007800Y006960D02*
X007800Y007000D01*
X007700Y007000D02*
X007700Y006862D01*
X007705Y006850D02*
X007745Y006850D01*
X008610Y007000D02*
X008840Y007000D01*
X008784Y006945D01*
X008725Y006802D01*
X008666Y006945D01*
X008610Y007000D01*
X008660Y006950D02*
X008790Y006950D01*
X008800Y006960D02*
X008800Y007000D01*
X008700Y007000D02*
X008700Y006862D01*
X008705Y006850D02*
X008745Y006850D01*
X009610Y007000D02*
X009840Y007000D01*
X009784Y006945D01*
X009725Y006802D01*
X009666Y006945D01*
X009610Y007000D01*
X009660Y006950D02*
X009790Y006950D01*
X009800Y006960D02*
X009800Y007000D01*
X009700Y007000D02*
X009700Y006862D01*
X009705Y006850D02*
X009745Y006850D01*
X010610Y007000D02*
X010840Y007000D01*
X010784Y006945D01*
X010725Y006802D01*
X010666Y006945D01*
X010610Y007000D01*
X010660Y006950D02*
X010790Y006950D01*
X010800Y006960D02*
X010800Y007000D01*
X010700Y007000D02*
X010700Y006862D01*
X010705Y006850D02*
X010745Y006850D01*
X011610Y007000D02*
X011840Y007000D01*
X011784Y006945D01*
X011725Y006802D01*
X011666Y006945D01*
X011610Y007000D01*
X011660Y006950D02*
X011790Y006950D01*
X011800Y006960D02*
X011800Y007000D01*
X011700Y007000D02*
X011700Y006862D01*
X011705Y006850D02*
X011745Y006850D01*
X012610Y007000D02*
X012840Y007000D01*
X012784Y006945D01*
X012725Y006802D01*
X012666Y006945D01*
X012610Y007000D01*
X012660Y006950D02*
X012790Y006950D01*
X012800Y006960D02*
X012800Y007000D01*
X012700Y007000D02*
X012700Y006862D01*
X012705Y006850D02*
X012745Y006850D01*
X013610Y007000D02*
X013840Y007000D01*
X013784Y006945D01*
X013725Y006802D01*
X013666Y006945D01*
X013610Y007000D01*
X013660Y006950D02*
X013790Y006950D01*
X013800Y006960D02*
X013800Y007000D01*
X013700Y007000D02*
X013700Y006862D01*
X013705Y006850D02*
X013745Y006850D01*
X013745Y006450D02*
X013705Y006450D01*
X013700Y006438D02*
X013700Y005422D01*
X013728Y005450D02*
X003600Y005450D01*
X003600Y005350D02*
X013628Y005350D01*
X013600Y005322D02*
X013600Y006290D01*
X013560Y006250D02*
X013890Y006250D01*
X013900Y006240D02*
X013900Y005622D01*
X013928Y005650D02*
X003600Y005650D01*
X003600Y005550D02*
X013828Y005550D01*
X013800Y005522D02*
X013800Y006340D01*
X013790Y006350D02*
X013660Y006350D01*
X013500Y006201D02*
X013500Y005222D01*
X013528Y005250D02*
X003600Y005250D01*
X003600Y005750D02*
X014028Y005750D01*
X014000Y005722D02*
X014000Y006180D01*
X014377Y006150D02*
X014428Y006150D01*
X014400Y006160D02*
X014400Y006122D01*
X014722Y005850D02*
X014745Y005850D01*
X014700Y005828D02*
X014700Y004422D01*
X014728Y004450D02*
X013322Y004450D01*
X013300Y004428D02*
X013300Y004110D01*
X013200Y004110D02*
X013200Y004328D01*
X013222Y004350D02*
X014628Y004350D01*
X014600Y004322D02*
X014600Y005728D01*
X014622Y005750D02*
X014705Y005750D01*
X014745Y005450D02*
X014322Y005450D01*
X014300Y005428D02*
X014300Y004110D01*
X014200Y004110D02*
X014200Y005328D01*
X014222Y005350D02*
X014790Y005350D01*
X014800Y005340D02*
X014800Y004960D01*
X014784Y004945D02*
X014930Y005091D01*
X015073Y005150D01*
X015000Y005120D02*
X015000Y005180D01*
X015377Y005150D02*
X015520Y005209D01*
X015575Y005265D01*
X015575Y005035D01*
X015520Y005091D01*
X015377Y005150D01*
X015575Y005150D01*
X015500Y005099D02*
X015500Y005201D01*
X015560Y005250D02*
X015575Y005250D01*
X015400Y005160D02*
X015400Y005140D01*
X015560Y005050D02*
X015575Y005050D01*
X014745Y004850D02*
X013722Y004850D01*
X013700Y004828D02*
X013700Y004110D01*
X013600Y004110D02*
X013600Y004728D01*
X013622Y004750D02*
X014705Y004750D01*
X014705Y004650D02*
X013522Y004650D01*
X013500Y004628D02*
X013500Y004110D01*
X013400Y004110D02*
X013400Y004528D01*
X013422Y004550D02*
X014705Y004550D01*
X015037Y004165D02*
X015073Y004150D01*
X015022Y004150D01*
X015037Y004165D02*
X014986Y004114D01*
X015073Y004150D01*
X015000Y004128D02*
X015000Y004120D01*
X015377Y004150D02*
X015520Y004209D01*
X015575Y004265D01*
X015575Y004035D01*
X015520Y004091D01*
X015377Y004150D01*
X015575Y004150D01*
X015500Y004099D02*
X015500Y004201D01*
X015560Y004250D02*
X015575Y004250D01*
X015400Y004160D02*
X015400Y004140D01*
X015560Y004050D02*
X015575Y004050D01*
X015575Y003265D02*
X015575Y003035D01*
X015564Y003047D01*
X015498Y003095D01*
X015425Y003132D01*
X015373Y003149D01*
X015520Y003209D01*
X015575Y003265D01*
X015575Y003250D02*
X015560Y003250D01*
X015500Y003201D02*
X015500Y003093D01*
X015559Y003050D02*
X015575Y003050D01*
X015575Y003150D02*
X015377Y003150D01*
X015400Y003140D02*
X015400Y003160D01*
X015077Y003149D02*
X015025Y003132D01*
X014968Y003103D01*
X014968Y003194D01*
X015077Y003149D01*
X015073Y003150D02*
X014968Y003150D01*
X015000Y003180D02*
X015000Y003119D01*
X009000Y004110D02*
X009000Y006180D01*
X008800Y006340D02*
X008800Y004216D01*
X004043Y001750D02*
X003600Y001750D01*
X003600Y001650D02*
X004015Y001650D01*
X004015Y001550D02*
X003600Y001550D01*
X003750Y000438D02*
X003784Y000355D01*
X003840Y000300D01*
X003750Y000300D01*
X003750Y000438D01*
X003750Y000350D02*
X003790Y000350D01*
X003800Y000340D02*
X003800Y000300D01*
X015520Y006091D02*
X015575Y006035D01*
X015575Y006265D01*
X015520Y006209D01*
X015377Y006150D01*
X015575Y006150D01*
X015520Y006091D02*
X015377Y006150D01*
X015400Y006140D02*
X015400Y006160D01*
X015500Y006201D02*
X015500Y006099D01*
X015560Y006050D02*
X015575Y006050D01*
X015560Y006250D02*
X015575Y006250D01*
X015073Y006150D02*
X014986Y006114D01*
X015037Y006165D01*
X015073Y006150D01*
X015022Y006150D01*
X015000Y006128D02*
X015000Y006120D01*
X014700Y006422D02*
X014700Y006438D01*
X014705Y006450D02*
X014728Y006450D01*
X014740Y006462D02*
X014689Y006411D01*
X014725Y006498D01*
X014740Y006462D01*
X014725Y006802D02*
X014666Y006945D01*
X014610Y007000D01*
X014840Y007000D01*
X014784Y006945D01*
X014725Y006802D01*
X014705Y006850D02*
X014745Y006850D01*
X014700Y006862D02*
X014700Y007000D01*
X014660Y006950D02*
X014790Y006950D01*
X014800Y006960D02*
X014800Y007000D01*
X003840Y007000D02*
X003828Y006989D01*
X003780Y006923D01*
X003750Y006863D01*
X003750Y007000D01*
X003840Y007000D01*
X003800Y007000D02*
X003800Y006950D01*
X003750Y006950D01*
D16*
X008600Y003900D02*
X014475Y003900D01*
X015225Y004650D01*
X015225Y006650D02*
X012975Y004400D01*
X011225Y004400D01*
X008850Y003400D02*
X008740Y003510D01*
X008380Y003510D01*
X008260Y003630D01*
X006220Y003630D01*
X004225Y001635D01*
X004225Y000650D01*
X008840Y003390D02*
X008850Y003400D01*
X014350Y003400D01*
X014600Y003150D01*
X014100Y002900D02*
X014100Y000775D01*
X014225Y000650D01*
X014100Y002900D02*
X011225Y002900D01*
M02*
